<svg fill="currentColor" viewBox="0 0 24 24" id="accountAlert" height="1em" width="1em"><path d="M9.00781 0C10.1016 0 11.0391 0.390625 11.8203 1.17188C12.6016 1.95312 12.9922 2.89844 12.9922 4.00781C12.9922 5.10156 12.6016 6.03906 11.8203 6.82031C11.0391 7.60156 10.1016 7.99219 9.00781 7.99219C7.89844 7.99219 6.95312 7.60156 6.17188 6.82031C5.39062 6.03906 5 5.10156 5 4.00781C5 2.89844 5.39062 1.95312 6.17188 1.17188C6.95312 0.390625 7.89844 0 9.00781 0ZM9.00781 10.0078C10.1016 10.0078 11.1328 10.1094 12.1016 10.3125C13.0859 10.5156 13.9375 10.8047 14.6562 11.1797C15.375 11.5391 15.9453 11.9609 16.3672 12.4453C16.7891 12.9297 17 13.4453 17 13.9922V16.0078H0.992188V13.9922C0.992188 13.4453 1.20312 12.9297 1.625 12.4453C2.04688 11.9609 2.61719 11.5391 3.33594 11.1797C4.07031 10.8047 4.92188 10.5156 5.89062 10.3125C6.85938 10.1094 7.89844 10.0078 9.00781 10.0078ZM18.9922 7.99219V3H21.0078V7.99219H18.9922ZM18.9922 12V10.0078H21.0078V12H18.9922Z" /></svg>