<svg fill="currentColor" viewBox="0 0 24 24" id="accountCheck" height="1em" width="1em">
      <path d="M8 0.0078125C8.96875 0.0078125 9.78906 0.351562 10.4609 1.03906C11.1484 1.71094 11.4922 2.53125 11.4922 3.5C11.4922 4.46875 11.1484 5.29688 10.4609 5.98438C9.78906 6.65625 8.96875 6.99219 8 6.99219C7.03125 6.99219 6.20312 6.65625 5.51562 5.98438C4.84375 5.29688 4.50781 4.46875 4.50781 3.5C4.50781 2.53125 4.84375 1.71094 5.51562 1.03906C6.20312 0.351562 7.03125 0.0078125 8 0.0078125ZM8 8.75C8.96875 8.75 9.875 8.84375 10.7188 9.03125C11.5781 9.21875 12.3203 9.46875 12.9453 9.78125C13.5859 10.0938 14.0859 10.4609 14.4453 10.8828C14.8203 11.3047 15.0078 11.7578 15.0078 12.2422V14H0.992188V12.2422C0.992188 11.7578 1.17188 11.3047 1.53125 10.8828C1.90625 10.4609 2.40625 10.0938 3.03125 9.78125C3.67188 9.46875 4.41406 9.21875 5.25781 9.03125C6.11719 8.84375 7.03125 8.75 8 8.75ZM15.9922 7.64844L13.25 4.64844L14.3984 3.5L15.9922 5.09375L19.6016 1.50781L20.75 2.91406L15.9922 7.64844Z" />
</svg>