<svg fill="currentColor" viewBox="0 0 24 24" id="accountMinus" height="1em" width="1em">
      <path d="M15 15.0078C14.3281 15.0078 13.5312 15.0938 12.6094 15.2656C11.7031 15.4219 10.8281 15.6719 9.98438 16.0156C9.15625 16.3438 8.45312 16.7578 7.875 17.2578C7.29688 17.7578 7.00781 18.3359 7.00781 18.9922V21.0078H22.9922V18.9922C22.9922 18.3359 22.7031 17.7578 22.125 17.2578C21.5469 16.7578 20.8359 16.3438 19.9922 16.0156C19.1641 15.6719 18.2891 15.4219 17.3672 15.2656C16.4609 15.0938 15.6719 15.0078 15 15.0078ZM1.00781 11V12.9922H9V11H1.00781ZM15 12.9922C16.1094 12.9922 17.0547 12.6016 17.8359 11.8203C18.6172 11.0391 19.0078 10.1016 19.0078 9.00781C19.0078 7.89844 18.6172 6.95312 17.8359 6.17188C17.0547 5.39062 16.1094 5 15 5C13.8906 5 12.9453 5.39062 12.1641 6.17188C11.3828 6.95312 10.9922 7.89844 10.9922 9.00781C10.9922 10.1016 11.3828 11.0391 12.1641 11.8203C12.9453 12.6016 13.8906 12.9922 15 12.9922Z" />
</svg>
