<svg fill="currentColor" viewBox="0 0 24 24" id="accountSwitch" height="1em" width="1em">
      <path d="M15.0078 7.99219C15.5859 7.99219 16.2734 8.07031 17.0703 8.22656C17.8828 8.36719 18.6484 8.58594 19.3672 8.88281C20.1016 9.16406 20.7188 9.52344 21.2188 9.96094C21.7344 10.3984 21.9922 10.9141 21.9922 11.5078V13.9922H15.9922V11.5078C15.9922 10.7578 15.8125 10.1016 15.4531 9.53906C15.0938 8.96094 14.625 8.46094 14.0469 8.03906L15.0078 7.99219ZM6.99219 7.99219C7.58594 7.99219 8.28125 8.07031 9.07812 8.22656C9.875 8.36719 10.6406 8.58594 11.375 8.88281C12.1094 9.16406 12.7266 9.52344 13.2266 9.96094C13.7422 10.3984 14 10.9141 14 11.5078V13.9922H0.0078125V11.5078C0.0078125 10.9141 0.257812 10.3984 0.757812 9.96094C1.27344 9.52344 1.89062 9.16406 2.60938 8.88281C3.34375 8.58594 4.10938 8.36719 4.90625 8.22656C5.71875 8.07031 6.41406 7.99219 6.99219 7.99219ZM6.99219 6C6.16406 6 5.45312 5.71094 4.85938 5.13281C4.28125 4.53906 3.99219 3.82812 3.99219 3C3.99219 2.17188 4.28125 1.46875 4.85938 0.890625C5.45312 0.296875 6.16406 0 6.99219 0C7.82031 0 8.52344 0.296875 9.10156 0.890625C9.69531 1.46875 9.99219 2.17188 9.99219 3C9.99219 3.82812 9.69531 4.53906 9.10156 5.13281C8.52344 5.71094 7.82031 6 6.99219 6ZM15.0078 6C14.1797 6 13.4688 5.71094 12.875 5.13281C12.2969 4.53906 12.0078 3.82812 12.0078 3C12.0078 2.17188 12.2969 1.46875 12.875 0.890625C13.4688 0.296875 14.1797 0 15.0078 0C15.8359 0 16.5391 0.296875 17.1172 0.890625C17.7109 1.46875 18.0078 2.17188 18.0078 3C18.0078 3.82812 17.7109 4.53906 17.1172 5.13281C16.5391 5.71094 15.8359 6 15.0078 6ZM8 15.75V18H14V15.75L17.2578 19.0078L14 22.2422V19.9922H8V22.2422L4.74219 19.0078L8 15.75Z" />
</svg>
