<svg fill="currentColor" viewBox="0 0 24 24" id="accountStar" height="1em" width="1em">
      <path d="M14 10.0078C13.3281 10.0078 12.5312 10.0938 11.6094 10.2656C10.7031 10.4219 9.82812 10.6719 8.98438 11.0156C8.15625 11.3438 7.45312 11.7578 6.875 12.2578C6.29688 12.7578 6.00781 13.3359 6.00781 13.9922V16.0078H21.9922V13.9922C21.9922 13.3359 21.7031 12.7578 21.125 12.2578C20.5469 11.7578 19.8359 11.3438 18.9922 11.0156C18.1641 10.6719 17.2891 10.4219 16.3672 10.2656C15.4609 10.0938 14.6719 10.0078 14 10.0078ZM14 7.99219C15.1094 7.99219 16.0547 7.60156 16.8359 6.82031C17.6172 6.03906 18.0078 5.10156 18.0078 4.00781C18.0078 2.89844 17.6172 1.95312 16.8359 1.17188C16.0547 0.390625 15.1094 0 14 0C12.8906 0 11.9453 0.390625 11.1641 1.17188C10.3828 1.95312 9.99219 2.89844 9.99219 4.00781C9.99219 5.10156 10.3828 6.03906 11.1641 6.82031C11.9453 7.60156 12.8906 7.99219 14 7.99219ZM3.99219 9.28125L6.45312 10.7812L5.79688 7.96875L8 6.07031L5.11719 5.83594L3.99219 3.1875L2.86719 5.83594L0.0078125 6.07031L2.1875 7.96875L1.50781 10.7812L3.99219 9.28125Z" />
</svg>
