<svg fill="currentColor" viewBox="0 0 24 24" id="accountRemove" height="1em" width="1em">
      <path d="M14 10.0078C14.6719 10.0078 15.4609 10.0938 16.3672 10.2656C17.2891 10.4219 18.1641 10.6719 18.9922 11.0156C19.8359 11.3438 20.5469 11.7578 21.125 12.2578C21.7031 12.7578 21.9922 13.3359 21.9922 13.9922V16.0078H6.00781V13.9922C6.00781 13.3359 6.29688 12.7578 6.875 12.2578C7.45312 11.7578 8.15625 11.3438 8.98438 11.0156C9.82812 10.6719 10.7031 10.4219 11.6094 10.2656C12.5312 10.0938 13.3281 10.0078 14 10.0078ZM14 7.99219C12.8906 7.99219 11.9453 7.60156 11.1641 6.82031C10.3828 6.03906 9.99219 5.10156 9.99219 4.00781C9.99219 2.89844 10.3828 1.95312 11.1641 1.17188C11.9453 0.390625 12.8906 0 14 0C15.1094 0 16.0547 0.390625 16.8359 1.17188C17.6172 1.95312 18.0078 2.89844 18.0078 4.00781C18.0078 5.10156 17.6172 6.03906 16.8359 6.82031C16.0547 7.60156 15.1094 7.99219 14 7.99219ZM3.99219 5.60156L6.125 3.46875L7.53125 4.875L5.39844 7.00781L7.53125 9.11719L6.125 10.5469L3.99219 8.41406L1.88281 10.5469L0.453125 9.11719L2.58594 7.00781L0.453125 4.875L1.88281 3.46875L3.99219 5.60156Z" />
</svg>
