<svg fill="currentColor" viewBox="0 0 24 24" id="accountFollowing" height="1em" width="1em">
      <path d="M9 6.00781C9.95312 6.00781 10.7734 6.35156 11.4609 7.03906C12.1484 7.72656 12.4922 8.54688 12.4922 9.5C12.4922 10.4531 12.1484 11.2734 11.4609 11.9609C10.7734 12.6484 9.95312 12.9922 9 12.9922C8.04688 12.9922 7.22656 12.6484 6.53906 11.9609C5.85156 11.2734 5.50781 10.4531 5.50781 9.5C5.50781 8.54688 5.85156 7.72656 6.53906 7.03906C7.22656 6.35156 8.04688 6.00781 9 6.00781ZM9 14.7969C9.96875 14.7969 10.875 14.8906 11.7188 15.0781C12.5781 15.2656 13.3203 15.5234 13.9453 15.8516C14.5859 16.1641 15.0859 16.5312 15.4453 16.9531C15.8203 17.375 16.0078 17.8203 16.0078 18.2891V20H1.99219V18.1953C1.99219 17.7266 2.17188 17.2891 2.53125 16.8828C2.90625 16.4609 3.40625 16.1016 4.03125 15.8047C4.67188 15.4922 5.41406 15.25 6.25781 15.0781C7.11719 14.8906 8.03125 14.7969 9 14.7969ZM22.0078 11.7969L18.7031 8.49219V10.7891H15V12.8047H18.7031V15.0078L22.0078 11.7969Z" />
</svg>
