<svg fill="currentColor" viewBox="0 0 24 24" id="accountSearch" height="1em" width="1em">
      <path d="M6.49219 0.992188C7.39844 0.992188 8.24219 1.16406 9.02344 1.50781C9.82031 1.85156 10.5078 2.32031 11.0859 2.91406C11.6797 3.49219 12.1484 4.17969 12.4922 4.97656C12.8359 5.75781 13.0078 6.60156 13.0078 7.50781C13.0078 8.30469 12.8672 9.07031 12.5859 9.80469C12.3047 10.5234 11.9219 11.1641 11.4375 11.7266L11.7188 12.0078H12.4922L17.5078 17L16.0078 18.5L10.9922 13.5078V12.7109L10.7344 12.4297C10.1562 12.9141 9.50781 13.2969 8.78906 13.5781C8.07031 13.8594 7.30469 14 6.49219 14C5.60156 14 4.75781 13.8281 3.96094 13.4844C3.17969 13.1406 2.49219 12.6797 1.89844 12.1016C1.32031 11.5078 0.859375 10.8203 0.515625 10.0391C0.171875 9.24219 0 8.39844 0 7.50781C0 6.60156 0.171875 5.75781 0.515625 4.97656C0.859375 4.17969 1.32031 3.49219 1.89844 2.91406C2.49219 2.32031 3.17969 1.85156 3.96094 1.50781C4.75781 1.16406 5.60156 0.992188 6.49219 0.992188ZM6.49219 12.0078C7.30469 12.0078 8.03906 11.8125 8.69531 11.4219C9.36719 11.0312 9.90625 10.5156 10.3125 9.875C9.90625 9.3125 9.36719 8.85938 8.69531 8.51562C8.03906 8.17188 7.30469 8 6.49219 8C5.69531 8 4.96094 8.17188 4.28906 8.51562C3.63281 8.85938 3.09375 9.3125 2.67188 9.875C3.09375 10.5156 3.63281 11.0312 4.28906 11.4219C4.96094 11.8125 5.69531 12.0078 6.49219 12.0078ZM6.49219 3.00781C6.00781 3.00781 5.59375 3.17969 5.25 3.52344C4.92188 3.85156 4.75781 4.25781 4.75781 4.74219C4.75781 5.22656 4.92188 5.64062 5.25 5.98438C5.59375 6.32812 6.00781 6.5 6.49219 6.5C6.97656 6.5 7.39062 6.32812 7.73438 5.98438C8.07812 5.64062 8.25 5.22656 8.25 4.74219C8.25 4.25781 8.07812 3.85156 7.73438 3.52344C7.39062 3.17969 6.97656 3.00781 6.49219 3.00781Z" />
</svg>
