<svg fill="currentColor" viewBox="0 0 24 24" id="accountFollower" height="1em" width="1em">
      <path d="M15 6.00781C15.9531 6.00781 16.7734 6.35156 17.4609 7.03906C18.1484 7.72656 18.4922 8.54688 18.4922 9.5C18.4922 10.4531 18.1484 11.2734 17.4609 11.9609C16.7734 12.6484 15.9531 12.9922 15 12.9922C14.0469 12.9922 13.2266 12.6484 12.5391 11.9609C11.8516 11.2734 11.5078 10.4531 11.5078 9.5C11.5078 8.54688 11.8516 7.72656 12.5391 7.03906C13.2266 6.35156 14.0469 6.00781 15 6.00781ZM15 14.7969C15.9688 14.7969 16.875 14.8906 17.7188 15.0781C18.5781 15.2656 19.3203 15.5234 19.9453 15.8516C20.5859 16.1641 21.0859 16.5312 21.4453 16.9531C21.8203 17.375 22.0078 17.8203 22.0078 18.2891V20H7.99219V18.1953C7.99219 17.7266 8.17188 17.2891 8.53125 16.8828C8.90625 16.4609 9.40625 16.1016 10.0312 15.8047C10.6719 15.4922 11.4141 15.25 12.2578 15.0781C13.1172 14.8906 14.0312 14.7969 15 14.7969ZM9 11.7969L5.69531 8.49219V10.7891H1.99219V12.8047H5.69531V15.0078L9 11.7969Z" />
</svg>
