<svg fill="currentColor" viewBox="0 0 24 24" id="accountOff" height="1em" width="1em">
      <path d="M10 0C11.1094 0 12.0547 0.390625 12.8359 1.17188C13.6172 1.95312 14.0078 2.89844 14.0078 4.00781C14.0078 4.97656 13.6953 5.82812 13.0703 6.5625C12.4453 7.29688 11.6719 7.75 10.75 7.92188L6.0625 3.25781C6.25 2.32031 6.71094 1.54688 7.44531 0.9375C8.17969 0.3125 9.03125 0 10 0ZM10.2812 10.0078L17.9922 17.7188L16.7266 19.0078L13.7266 16.0078H2.00781V13.9922C2.00781 13.5391 2.14844 13.1094 2.42969 12.7031C2.72656 12.2812 3.13281 11.8984 3.64844 11.5547C4.17969 11.2109 4.80469 10.9219 5.52344 10.6875C6.24219 10.4375 7.02344 10.2578 7.86719 10.1484L0.789062 3.04688L2.05469 1.78125L10.2812 10.0078ZM17.9922 13.9922V15.1875L13.1406 10.3125C14.5625 10.625 15.7266 11.1172 16.6328 11.7891C17.5391 12.4453 17.9922 13.1797 17.9922 13.9922Z" />
</svg>
