<svg fill="currentColor" viewBox="0 0 24 24" id="barley" height="1em" width="1em">
      <path d="M7.33594 19.3203C6.91406 18.7422 6.66406 18.1328 6.58594 17.4922C6.52344 16.8359 6.49219 16.1719 6.49219 15.5C7.33594 16 8.13281 16.5078 8.88281 17.0234C9.64844 17.5391 10.2422 18.0859 10.6641 18.6641L10.9922 19.2266V16.9531C10.2422 16.5 9.53906 16.0391 8.88281 15.5703C8.22656 15.1016 7.71094 14.6016 7.33594 14.0703C6.91406 13.4922 6.66406 12.8828 6.58594 12.2422C6.52344 11.5859 6.49219 10.9219 6.49219 10.25C7.33594 10.75 8.13281 11.2578 8.88281 11.7734C9.64844 12.2891 10.2422 12.8359 10.6641 13.4141L10.9922 14V11.7031C10.2422 11.25 9.53906 10.7891 8.88281 10.3203C8.22656 9.85156 7.71094 9.35156 7.33594 8.82031C6.91406 8.24219 6.66406 7.63281 6.58594 6.99219C6.52344 6.33594 6.49219 5.67188 6.49219 5C7.33594 5.5 8.13281 6.00781 8.88281 6.52344C9.64844 7.03906 10.2422 7.58594 10.6641 8.16406C10.7109 8.24219 10.7578 8.32031 10.8047 8.39844C10.8516 8.46094 10.8984 8.53125 10.9453 8.60938C10.8516 8.3125 10.7812 8.01562 10.7344 7.71875C10.6875 7.42188 10.6562 7.125 10.6406 6.82812C10.6406 6.0625 10.7734 5.29688 11.0391 4.53125C11.3203 3.76562 11.625 2.99219 11.9531 2.21094C12.2969 2.94531 12.6094 3.6875 12.8906 4.4375C13.1875 5.1875 13.3438 5.9375 13.3594 6.6875C13.3594 7 13.3281 7.32031 13.2656 7.64844C13.2188 7.96094 13.1562 8.27344 13.0781 8.58594C13.1094 8.52344 13.1484 8.46094 13.1953 8.39844C13.2422 8.32031 13.2891 8.24219 13.3359 8.16406C13.7578 7.58594 14.3438 7.03906 15.0938 6.52344C15.8594 6.00781 16.6641 5.5 17.5078 5C17.5078 5.67188 17.4688 6.33594 17.3906 6.99219C17.3281 7.63281 17.0859 8.24219 16.6641 8.82031C16.2891 9.35156 15.7734 9.85156 15.1172 10.3203C14.4609 10.7891 13.7578 11.25 13.0078 11.7031V14L13.3359 13.4141C13.7578 12.8359 14.3438 12.2891 15.0938 11.7734C15.8594 11.2578 16.6641 10.75 17.5078 10.25C17.5078 10.9219 17.4688 11.5859 17.3906 12.2422C17.3281 12.8828 17.0859 13.4922 16.6641 14.0703C16.2891 14.6016 15.7734 15.1016 15.1172 15.5703C14.4609 16.0391 13.7578 16.5 13.0078 16.9531V19.2266L13.3359 18.6641C13.7578 18.0859 14.3438 17.5391 15.0938 17.0234C15.8594 16.5078 16.6641 16 17.5078 15.5C17.5078 16.1719 17.4688 16.8359 17.3906 17.4922C17.3281 18.1328 17.0859 18.7422 16.6641 19.3203C16.2891 19.8516 15.7734 20.3516 15.1172 20.8203C14.4609 21.2891 13.7578 21.75 13.0078 22.2031V24.0078H10.9922V22.2031C10.2422 21.75 9.53906 21.2891 8.88281 20.8203C8.22656 20.3516 7.71094 19.8516 7.33594 19.3203Z" />
</svg>
