<svg fill="currentColor" viewBox="0 0 24 24" id="carrot" height="1em" width="1em">
      <path d="M9.00781 8L8.79688 9.00781H6.5C6.35938 9.00781 6.24219 9.05469 6.14844 9.14844C6.05469 9.24219 6.00781 9.35938 6.00781 9.5C6.00781 9.64062 6.05469 9.75781 6.14844 9.85156C6.24219 9.94531 6.35938 9.99219 6.5 9.99219H8.60938L7.60156 15.0078H5.49219C5.35156 15.0078 5.23438 15.0547 5.14062 15.1484C5.04688 15.2422 5 15.3594 5 15.5C5 15.6406 5.04688 15.7578 5.14062 15.8516C5.23438 15.9453 5.35156 15.9922 5.49219 15.9922H7.39062L6.99219 18.0078C6.99219 18.5547 6.79688 19.0234 6.40625 19.4141C6.01562 19.8047 5.54688 20 5 20C4.45312 20 3.98438 19.8047 3.59375 19.4141C3.20312 19.0234 3.00781 18.5547 3.00781 18.0078L2 12.9922H3.5C3.64062 12.9922 3.75781 12.9453 3.85156 12.8516C3.94531 12.7578 3.99219 12.6406 3.99219 12.5C3.99219 12.3594 3.94531 12.2422 3.85156 12.1484C3.75781 12.0547 3.64062 12.0078 3.5 12.0078H1.78906L0.992188 8C0.992188 7.40625 1.20312 6.86719 1.625 6.38281C2.0625 5.89844 2.61719 5.53125 3.28906 5.28125L1.90625 3.28906C1.75 3.05469 1.69531 2.80469 1.74219 2.53906C1.78906 2.25781 1.92969 2.03906 2.16406 1.88281C2.38281 1.72656 2.625 1.67969 2.89062 1.74219C3.17188 1.78906 3.39062 1.92188 3.54688 2.14062L3.99219 2.79688V0.992188C3.99219 0.726562 4.08594 0.5 4.27344 0.3125C4.47656 0.109375 4.71875 0.0078125 5 0.0078125C5.28125 0.0078125 5.51562 0.109375 5.70312 0.3125C5.90625 0.5 6.00781 0.726562 6.00781 0.992188V3.28906L7.50781 1.53125C7.66406 1.32812 7.88281 1.21875 8.16406 1.20312C8.44531 1.17188 8.6875 1.25 8.89062 1.4375C9.09375 1.60938 9.20312 1.83594 9.21875 2.11719C9.25 2.38281 9.17969 2.625 9.00781 2.84375L6.875 5.35156C7.5 5.60156 8.00781 5.96094 8.39844 6.42969C8.80469 6.89844 9.00781 7.42188 9.00781 8Z" />
</svg>
