<svg fill="currentColor" viewBox="0 0 24 24" id="cheese" height="1em" width="1em">
      <path d="M9.60938 15.1953C9.65625 14.8047 9.85156 14.4844 10.1953 14.2344C10.5391 13.9844 10.9062 13.9062 11.2969 14C11.4531 14.0469 11.6016 14.1016 11.7422 14.1641C11.8828 14.2266 12 14.3047 12.0938 14.3984L18 3.99219C17.4531 3.36719 16.8438 2.8125 16.1719 2.32812C15.5 1.82812 14.7812 1.40625 14.0156 1.0625C13.2656 0.71875 12.4688 0.460938 11.625 0.289062C10.7812 0.101562 9.90625 0.0078125 9 0.0078125C8.09375 0.0078125 7.21875 0.101562 6.375 0.289062C5.53125 0.460938 4.72656 0.71875 3.96094 1.0625C3.21094 1.40625 2.5 1.82812 1.82812 2.32812C1.15625 2.8125 0.546875 3.36719 0 3.99219L0.890625 5.60938C1.25 5.35938 1.64844 5.24219 2.08594 5.25781C2.53906 5.25781 2.94531 5.40625 3.30469 5.70312C3.69531 6.04688 3.92188 6.5 3.98438 7.0625C4.0625 7.625 3.89844 8.10156 3.49219 8.49219C3.39844 8.60156 3.29688 8.70312 3.1875 8.79688C3.07812 8.875 2.94531 8.94531 2.78906 9.00781L9 20L10.8047 16.9062C10.3984 16.7969 10.0781 16.5859 9.84375 16.2734C9.625 15.9609 9.54688 15.6016 9.60938 15.1953ZM10.8047 4.39062C10.8984 3.84375 11.1641 3.42188 11.6016 3.125C12.0547 2.8125 12.5547 2.70312 13.1016 2.79688C13.6484 2.90625 14.0938 3.17969 14.4375 3.61719C14.7812 4.05469 14.8984 4.54688 14.7891 5.09375C14.6953 5.64062 14.4297 6.07031 13.9922 6.38281C13.5547 6.69531 13.0547 6.80469 12.4922 6.71094C11.9453 6.60156 11.5 6.32812 11.1562 5.89062C10.8125 5.45312 10.6953 4.95312 10.8047 4.39062ZM5.50781 3.28906C5.55469 2.99219 5.6875 2.77344 5.90625 2.63281C6.14062 2.49219 6.40625 2.44531 6.70312 2.49219C7 2.55469 7.21875 2.69531 7.35938 2.91406C7.5 3.13281 7.54688 3.39844 7.5 3.71094C7.45312 4.00781 7.3125 4.22656 7.07812 4.36719C6.85938 4.50781 6.60156 4.55469 6.30469 4.50781C6.05469 4.44531 5.84375 4.28906 5.67188 4.03906C5.5 3.78906 5.44531 3.53906 5.50781 3.28906ZM6.70312 11.4922C6.29688 11.1484 6.07031 10.6953 6.02344 10.1328C5.99219 9.57031 6.14844 9.09375 6.49219 8.70312C6.85156 8.25 7.30469 8.00781 7.85156 7.97656C8.41406 7.92969 8.89844 8.10156 9.30469 8.49219C9.69531 8.85156 9.92188 9.3125 9.98438 9.875C10.0625 10.4219 9.89844 10.8984 9.49219 11.3047C9.14844 11.6953 8.71094 11.9141 8.17969 11.9609C7.64844 12.0078 7.15625 11.8516 6.70312 11.4922Z" />
</svg>
