<svg fill="currentColor" viewBox="0 0 24 24" id="cow" height="1em" width="1em">
      <path d="M8.50022 15.9922C8.64085 15.9922 8.75803 16.0469 8.85178 16.1562C8.94553 16.25 8.99241 16.3672 8.99241 16.5078C8.99241 16.6484 8.94553 16.7656 8.85178 16.8594C8.75803 16.9531 8.64085 17 8.50022 17C8.3596 17 8.24241 16.9531 8.14866 16.8594C8.05491 16.7656 8.00803 16.6484 8.00803 16.5078C8.00803 16.3672 8.05491 16.25 8.14866 16.1562C8.24241 16.0469 8.3596 15.9922 8.50022 15.9922ZM11.5002 15.9922C11.6408 15.9922 11.758 16.0469 11.8518 16.1562C11.9455 16.25 11.9924 16.3672 11.9924 16.5078C11.9924 16.6484 11.9455 16.7656 11.8518 16.8594C11.758 16.9531 11.6408 17 11.5002 17C11.3596 17 11.2424 16.9531 11.1487 16.8594C11.0549 16.7656 11.008 16.6484 11.008 16.5078C11.008 16.3672 11.0549 16.25 11.1487 16.1562C11.2424 16.0469 11.3596 15.9922 11.5002 15.9922ZM8.00803 9.00781C8.27366 9.00781 8.50022 9.10938 8.68772 9.3125C8.89085 9.5 8.99241 9.72656 8.99241 9.99219C8.99241 10.2734 8.89085 10.5156 8.68772 10.7188C8.50022 10.9062 8.27366 11 8.00803 11C7.72678 11 7.4846 10.9062 7.28147 10.7188C7.09397 10.5156 7.00022 10.2734 7.00022 9.99219C7.00022 9.72656 7.09397 9.5 7.28147 9.3125C7.4846 9.10938 7.72678 9.00781 8.00803 9.00781ZM11.9924 9.00781C12.2737 9.00781 12.508 9.10938 12.6955 9.3125C12.8987 9.5 13.0002 9.72656 13.0002 9.99219C13.0002 10.2734 12.8987 10.5156 12.6955 10.7188C12.508 10.9062 12.2737 11 11.9924 11C11.7268 11 11.4924 10.9062 11.2893 10.7188C11.1018 10.5156 11.008 10.2734 11.008 9.99219C11.008 9.72656 11.1018 9.5 11.2893 9.3125C11.4924 9.10938 11.7268 9.00781 11.9924 9.00781ZM16.0002 15.9922C16.0002 16.5547 15.844 17.0781 15.5315 17.5625C15.219 18.0469 14.7893 18.4688 14.2424 18.8281C13.6955 19.1875 13.0549 19.4766 12.3205 19.6953C11.6018 19.8984 10.8283 20 10.0002 20C9.1721 20 8.39085 19.8984 7.65647 19.6953C6.93772 19.4766 6.30491 19.1875 5.75803 18.8281C5.21116 18.4688 4.78147 18.0469 4.46897 17.5625C4.15647 17.0781 4.00022 16.5547 4.00022 15.9922C4.00022 15.5547 4.10178 15.1328 4.30491 14.7266C4.52366 14.3047 4.82053 13.9297 5.19553 13.6016C4.82053 13.1016 4.52366 12.5469 4.30491 11.9375C4.10178 11.3281 4.00022 10.6797 4.00022 9.99219L4.11741 8.77344C3.85178 8.85156 3.56272 8.89062 3.25022 8.89062C2.95335 8.89062 2.6721 8.85156 2.40647 8.77344C1.89085 8.63281 1.34397 8.32812 0.765847 7.85938C0.187722 7.39062 -0.0466531 6.95312 0.0627219 6.54688C0.187722 6.15625 0.617409 5.91406 1.35178 5.82031C2.10178 5.72656 2.72678 5.75 3.22678 5.89062C3.52366 5.98438 3.81272 6.13281 4.09397 6.33594C4.39085 6.52344 4.63303 6.73438 4.82053 6.96875L5.38303 6.14844C5.08616 5.60156 5.07053 4.73438 5.33616 3.54688C5.61741 2.34375 6.50803 1.49219 8.00803 0.992188L7.91428 1.13281C7.77366 1.35156 7.60178 1.77344 7.39866 2.39844C7.19553 3.02344 7.28928 3.71094 7.67991 4.46094C8.03928 4.32031 8.40647 4.21094 8.78147 4.13281C9.1721 4.03906 9.57835 3.99219 10.0002 3.99219C10.4221 3.99219 10.8205 4.03906 11.1955 4.13281C11.5862 4.21094 11.9612 4.32031 12.3205 4.46094C12.7112 3.71094 12.8049 3.02344 12.6018 2.39844C12.3987 1.77344 12.2268 1.35156 12.0862 1.13281L11.9924 0.992188C13.4924 1.49219 14.3752 2.34375 14.6408 3.54688C14.9221 4.73438 14.9143 5.60156 14.6174 6.14844L15.1799 6.96875C15.3674 6.73438 15.6018 6.52344 15.883 6.33594C16.1799 6.13281 16.4768 5.98438 16.7737 5.89062C17.2737 5.75 17.8908 5.72656 18.6252 5.82031C19.3752 5.91406 19.8127 6.15625 19.9377 6.54688C20.0471 6.95312 19.8127 7.39062 19.2346 7.85938C18.6565 8.32812 18.1096 8.63281 17.594 8.77344C17.3283 8.85156 17.0393 8.89062 16.7268 8.89062C16.4299 8.89062 16.1487 8.85156 15.883 8.77344L16.0002 9.99219C16.0002 10.6797 15.8908 11.3281 15.6721 11.9375C15.469 12.5469 15.1799 13.1016 14.8049 13.6016C15.1799 13.9297 15.469 14.3047 15.6721 14.7266C15.8908 15.1328 16.0002 15.5547 16.0002 15.9922ZM10.0002 14C8.89085 14 7.94553 14.1953 7.16428 14.5859C6.38303 14.9766 5.99241 15.4453 5.99241 15.9922C5.99241 16.5547 6.38303 17.0312 7.16428 17.4219C7.94553 17.8125 8.89085 18.0078 10.0002 18.0078C11.1096 18.0078 12.0549 17.8125 12.8362 17.4219C13.6174 17.0312 14.008 16.5547 14.008 15.9922C14.008 15.4453 13.6174 14.9766 12.8362 14.5859C12.0549 14.1953 11.1096 14 10.0002 14ZM10.0002 12.0078C10.5627 12.0078 11.1018 12.0547 11.6174 12.1484C12.133 12.2422 12.6174 12.3828 13.0705 12.5703C13.3674 12.2109 13.594 11.8203 13.7502 11.3984C13.9221 10.9609 14.008 10.4922 14.008 9.99219C14.008 8.89844 13.6174 7.96094 12.8362 7.17969C12.0549 6.39844 11.1096 6.00781 10.0002 6.00781C8.89085 6.00781 7.94553 6.39844 7.16428 7.17969C6.38303 7.96094 5.99241 8.89844 5.99241 9.99219C5.99241 10.4922 6.07053 10.9609 6.22678 11.3984C6.39866 11.8203 6.63303 12.2109 6.92991 12.5703C7.38303 12.3828 7.86741 12.2422 8.38303 12.1484C8.89866 12.0547 9.43772 12.0078 10.0002 12.0078Z" />
</svg>
