<svg fill="currentColor" viewBox="0 0 24 24" id="dotsVertical" height="1em" width="1em">
      <path d="M2 12C2.54688 12 3.01562 12.1953 3.40625 12.5859C3.79688 12.9766 3.99219 13.4453 3.99219 13.9922C3.99219 14.5547 3.79688 15.0312 3.40625 15.4219C3.01562 15.8125 2.54688 16.0078 2 16.0078C1.45312 16.0078 0.984375 15.8125 0.59375 15.4219C0.203125 15.0312 0.0078125 14.5547 0.0078125 13.9922C0.0078125 13.4453 0.203125 12.9766 0.59375 12.5859C0.984375 12.1953 1.45312 12 2 12ZM2 6C2.54688 6 3.01562 6.19531 3.40625 6.58594C3.79688 6.97656 3.99219 7.44531 3.99219 7.99219C3.99219 8.55469 3.79688 9.03125 3.40625 9.42188C3.01562 9.8125 2.54688 10.0078 2 10.0078C1.45312 10.0078 0.984375 9.8125 0.59375 9.42188C0.203125 9.03125 0.0078125 8.55469 0.0078125 7.99219C0.0078125 7.44531 0.203125 6.97656 0.59375 6.58594C0.984375 6.19531 1.45312 6 2 6ZM2 0C2.54688 0 3.01562 0.195312 3.40625 0.585938C3.79688 0.976562 3.99219 1.44531 3.99219 1.99219C3.99219 2.55469 3.79688 3.03125 3.40625 3.42188C3.01562 3.8125 2.54688 4.00781 2 4.00781C1.45312 4.00781 0.984375 3.8125 0.59375 3.42188C0.203125 3.03125 0.0078125 2.55469 0.0078125 1.99219C0.0078125 1.44531 0.203125 0.976562 0.59375 0.585938C0.984375 0.195312 1.45312 0 2 0Z" />
</svg>
