<svg fill="currentColor" viewBox="0 0 24 24" id="duckyLogoBeta" height="1em" width="1em">
      <path d="m 14.77467,11.219896 v 2.446696 c 0,0.06304 -0.01772,0.118184 -0.05317,0.165463 -0.03548,0.04335 -0.08472,0.0729 -0.147763,0.08866 -0.05121,0.01179 -0.108351,0.02363 -0.171389,0.03545 -0.05908,0.01182 -0.120151,0.02366 -0.18319,0.03545 -0.114252,0.01576 -0.234429,0.02956 -0.360505,0.04138 -0.122144,0.0079 -0.246255,0.01182 -0.372332,0.01182 -0.126077,0 -0.244263,-0.0079 -0.35458,-0.02365 -0.106384,-0.01575 -0.197009,-0.04136 -0.271848,-0.07683 -0.09062,-0.03938 -0.169423,-0.08274 -0.236394,-0.130012 -0.06303,-0.04728 -0.120178,-0.09653 -0.17139,-0.147737 -0.04728,-0.06303 -0.08865,-0.132002 -0.12411,-0.206867 -0.03545,-0.07484 -0.06107,-0.157597 -0.07683,-0.248196 -0.02365,-0.08669 -0.03742,-0.175323 -0.04138,-0.265949 -0.0039,-0.09062 -0.0058,-0.187148 -0.0058,-0.289573 v -1.43611 c 0,-0.07487 0.02562,-0.135927 0.07683,-0.183206 0.05121,-0.04728 0.108352,-0.07092 0.17139,-0.07092 h 0.330953 c 0.07484,0 0.135911,0.02758 0.18319,0.08274 0.04728,0.05122 0.07093,0.108349 0.07093,0.171388 v 1.311999 c 0,0.137877 0.0058,0.258055 0.01772,0.36048 0.01576,0.09851 0.04335,0.179283 0.08274,0.242321 0.03545,0.06303 0.08472,0.108351 0.147762,0.135911 0.06697,0.02759 0.151671,0.04138 0.254122,0.04138 0.02362,0 0.05318,0 0.08864,0 0.03548,0 0.0729,0 0.112283,0 0.03941,0 0.0729,0 0.100479,0 0.02759,-0.0039 0.05318,-0.01182 0.07683,-0.02363 v -2.068463 c 0,-0.07486 0.02559,-0.135927 0.07683,-0.183206 0.05515,-0.04728 0.114252,-0.07092 0.17729,-0.07092 h 0.325027 c 0.08669,0 0.153664,0.02758 0.200942,0.08274 0.05121,0.05122 0.07683,0.108349 0.07683,0.171388 z m -3.250423,-0.153659 c -0.05121,-0.126076 -0.116242,-0.240333 -0.195041,-0.34277 -0.07484,-0.102439 -0.16153,-0.196996 -0.260021,-0.283675 -0.102451,-0.07486 -0.210777,-0.141837 -0.325053,-0.200937 -0.114251,-0.06303 -0.242296,-0.114256 -0.384133,-0.153655 -0.137903,-0.0394 -0.283673,-0.06896 -0.4373361,-0.08864 -0.1536631,-0.02365 -0.3191269,-0.03546 -0.4964167,-0.03546 -0.074865,0 -0.1615555,0.002 -0.2600471,0.0059 -0.098491,0 -0.2048755,0.0059 -0.3191268,0.01773 -0.074865,0 -0.1457706,0.0058 -0.212768,0.01772 -0.063038,0.0079 -0.1260773,0.0197 -0.1891158,0.03546 h -0.023627 c -0.063038,0.01181 -0.1122844,0.04137 -0.1477373,0.08864 -0.035478,0.04335 -0.053204,0.09653 -0.053204,0.159566 v 3.427736 c 0,0.06303 0.017727,0.118184 0.053204,0.165464 0.035453,0.04728 0.084699,0.07683 0.1477373,0.08865 h 0.023627 c 0.063038,0.01182 0.1260772,0.01969 0.1891158,0.02362 0.066997,0.0039 0.1379033,0.01379 0.212768,0.02956 0.1024252,0.01182 0.200942,0.01969 0.2955,0.02365 0.098491,0 0.185157,0 0.2600217,0 0.1772899,0 0.342779,-0.01182 0.4964419,-0.03548 0.1575961,-0.02363 0.3112341,-0.05317 0.4609631,-0.08864 0.141837,-0.03941 0.271848,-0.09062 0.390058,-0.153662 0.122118,-0.06303 0.228502,-0.137903 0.319128,-0.22457 0.09849,-0.09062 0.185181,-0.187149 0.260021,-0.289598 0.0788,-0.102426 0.14383,-0.216676 0.195041,-0.342755 0.04728,-0.126076 0.08274,-0.26398 0.106385,-0.413709 0.02757,-0.153638 0.04136,-0.319127 0.04136,-0.496416 0,-0.189117 -0.01379,-0.360506 -0.04136,-0.51417 -0.02365,-0.153636 -0.0591,-0.293518 -0.106385,-0.419594 z m -1.087415,1.843891 c -0.114252,0.114251 -0.254122,0.196984 -0.41961,0.248195 -0.1615314,0.05124 -0.3486805,0.07683 -0.5614233,0.07683 -0.039411,0 -0.076831,0 -0.1123097,0 -0.035453,0 -0.065006,0 -0.088633,0 -0.027585,0 -0.055172,0 -0.082733,0 -0.023652,0 -0.047279,0 -0.070931,0 v -2.493958 c 0.023652,0 0.051213,0 0.082733,0 0.035478,-0.0039 0.066998,-0.01181 0.094558,-0.02365 0.035478,0 0.066998,0 0.094558,0 0.027585,0 0.055172,0 0.082757,0 0.2245689,0 0.4195851,0.02561 0.585075,0.07683 0.165464,0.05122 0.297466,0.133958 0.395959,0.248214 0.102425,0.114258 0.177289,0.248219 0.224568,0.401881 0.05121,0.153637 0.07683,0.330952 0.07683,0.531869 0.01575,0.200942 -0.0019,0.382191 -0.05318,0.543722 -0.05124,0.157596 -0.133969,0.287607 -0.248219,0.390057 z m 7.263235,0.803742 c 0,0.06303 -0.01772,0.116219 -0.0532,0.159564 -0.03152,0.03939 -0.07288,0.07091 -0.12411,0.09456 h -0.02363 c -0.02759,0 -0.04924,0.0039 -0.065,0.01182 -0.01575,0.0079 -0.03745,0.01179 -0.06501,0.01179 -0.07486,0.01576 -0.151696,0.02956 -0.230494,0.04138 -0.07486,0.0079 -0.157597,0.01182 -0.24822,0.01182 -0.137879,0 -0.263955,-0.01182 -0.378232,-0.03548 -0.114252,-0.02363 -0.222603,-0.05317 -0.325027,-0.08864 -0.102462,-0.03941 -0.193087,-0.08866 -0.271884,-0.147761 -0.07484,-0.05908 -0.143805,-0.120151 -0.206844,-0.18319 -0.06303,-0.07487 -0.120151,-0.151697 -0.171389,-0.230495 -0.04728,-0.08274 -0.08274,-0.173356 -0.106358,-0.271848 -0.02366,-0.102449 -0.04728,-0.204875 -0.07093,-0.307325 -0.01969,-0.102426 -0.02956,-0.210776 -0.02956,-0.325028 0,-0.11425 0.0058,-0.220634 0.01772,-0.319152 0.01576,-0.102425 0.04334,-0.196983 0.08276,-0.283673 0.03938,-0.102426 0.08273,-0.19305 0.130011,-0.271848 0.05121,-0.0788 0.108351,-0.157597 0.171389,-0.236395 0.06304,-0.07485 0.135912,-0.137892 0.21867,-0.189111 0.08667,-0.05122 0.173355,-0.09653 0.26002,-0.135927 0.102451,-0.0394 0.204876,-0.06896 0.307327,-0.08864 0.106359,-0.02365 0.222602,-0.03546 0.348678,-0.03546 0.07487,0 0.149705,0.0058 0.22457,0.01772 0.07487,0.0079 0.143804,0.01772 0.206842,0.02955 0.02366,0 0.04728,0.0058 0.07093,0.01772 0.02757,0.0079 0.05318,0.0197 0.07683,0.03546 0.05121,0.01181 0.09257,0.04137 0.124083,0.08864 0.03548,0.04333 0.0532,0.09653 0.0532,0.159566 0,0.01576 0,0.02562 0,0.02956 0,0.0039 0,0.01179 0,0.02362 v 0.02365 l -0.04728,0.177291 v 0.02365 c -0.01575,0.05121 -0.04727,0.09456 -0.09455,0.130011 -0.04334,0.03152 -0.09653,0.04728 -0.159564,0.04728 -0.01182,0 -0.01973,0 -0.02366,0 -0.0039,0 -0.01379,0 -0.02955,0 h -0.02363 c -0.05121,-0.01182 -0.102451,-0.01772 -0.153663,-0.01772 -0.05121,-0.0039 -0.10835,-0.0059 -0.17139,-0.0059 -0.126077,0 -0.234428,0.01969 -0.325027,0.0591 -0.09062,0.03545 -0.167456,0.09062 -0.230494,0.165489 -0.06303,0.05121 -0.112285,0.126076 -0.147738,0.224567 -0.03548,0.09849 -0.0532,0.216702 -0.0532,0.354581 0,0.141836 0.01379,0.26398 0.04138,0.36643 0.02759,0.102426 0.07288,0.191084 0.135911,0.265923 0.06303,0.07486 0.14383,0.132003 0.242322,0.171389 0.102424,0.03548 0.222602,0.0532 0.360504,0.0532 0.05121,0 0.102426,0 0.153638,0 0.05124,-0.0039 0.108352,-0.01182 0.17139,-0.02366 0.01575,0 0.03152,-0.0039 0.04728,-0.01182 0.01972,-0.0079 0.02956,-0.01179 0.02956,-0.01179 0.01182,0 0.01969,0 0.02365,0 0.0079,0 0.01772,0 0.02955,0 0.06303,0 0.116218,0.01772 0.159564,0.05317 0.04727,0.03545 0.07683,0.0847 0.08863,0.147738 l 0.02956,0.200942 c 0.01182,0 0.01772,0.0039 0.01772,0.01182 0.0039,0.0079 0.0058,0.01182 0.0058,0.01182 z m 3.126313,0 c 0,0.0788 -0.02759,0.141837 -0.08273,0.189116 -0.05121,0.04333 -0.108351,0.065 -0.17139,0.065 h -0.401883 c -0.03939,0 -0.08077,-0.0099 -0.124086,-0.02955 -0.03941,-0.02366 -0.06504,-0.04728 -0.07683,-0.07093 -0.02366,-0.03938 -0.04531,-0.07288 -0.065,-0.100459 -0.01575,-0.02759 -0.03548,-0.06107 -0.0591,-0.100459 -0.03941,-0.06303 -0.0788,-0.12411 -0.118211,-0.183215 -0.03938,-0.06303 -0.0847,-0.120177 -0.135911,-0.171389 -0.03941,-0.06304 -0.08276,-0.122144 -0.130037,-0.17729 -0.04728,-0.05517 -0.09653,-0.114251 -0.147737,-0.177291 -0.05121,-0.04728 -0.100459,-0.09455 -0.147737,-0.141836 -0.0473,-0.05124 -0.09064,-0.09456 -0.130051,-0.130036 v 1.081516 c 0,0.06303 -0.02756,0.122143 -0.08273,0.17729 -0.05121,0.05121 -0.108351,0.07683 -0.171389,0.07683 H 18.45653 c -0.07486,0 -0.135936,-0.02562 -0.183216,-0.07683 -0.04728,-0.05515 -0.0709,-0.114252 -0.0709,-0.17729 V 9.8842632 c 0,-0.063038 0.01772,-0.1181975 0.05317,-0.1654764 0.03545,-0.047279 0.0847,-0.076829 0.147737,-0.088648 l 0.378227,-0.047278 h 0.02956 c 0.06303,0 0.120176,0.023639 0.17139,0.070919 0.05121,0.043341 0.07683,0.1024377 0.07683,0.1772948 v 2.2221064 c 0.03939,-0.05121 0.08077,-0.09653 0.124111,-0.135912 0.04728,-0.04335 0.09062,-0.09062 0.130011,-0.141837 0.05121,-0.05124 0.09652,-0.100479 0.135937,-0.147763 0.03938,-0.05121 0.0788,-0.102424 0.118184,-0.153662 0.03545,-0.05121 0.07093,-0.09653 0.106385,-0.135911 0.03938,-0.04335 0.0788,-0.09062 0.118184,-0.14184 0.02366,-0.02758 0.04334,-0.05122 0.0591,-0.07092 0.01576,-0.02365 0.02955,-0.04334 0.04138,-0.0591 0.02759,-0.02365 0.0591,-0.04531 0.09455,-0.06502 0.03545,-0.02365 0.07091,-0.03546 0.106384,-0.03546 h 0.330954 c 0.07484,0 0.133944,0.02758 0.177289,0.08274 0.04728,0.05122 0.0709,0.108346 0.0709,0.171386 0,0.02365 -0.0058,0.05123 -0.01772,0.08275 -0.0079,0.03152 -0.01772,0.05515 -0.02955,0.07091 0,0 -0.0019,0.0039 -0.0058,0.01182 0,0.0079 -0.0058,0.01182 -0.01772,0.01182 -0.03941,0.03938 -0.07487,0.0788 -0.106384,0.118185 -0.02759,0.03545 -0.06107,0.07093 -0.100459,0.106384 -0.09851,0.102426 -0.198974,0.20881 -0.301399,0.319128 -0.102452,0.110316 -0.210802,0.222601 -0.325054,0.336877 0.06303,0.05121 0.122144,0.108326 0.177291,0.171365 0.05517,0.06303 0.114251,0.132003 0.177289,0.206867 0.06303,0.07484 0.124111,0.151671 0.183216,0.230469 0.0591,0.07487 0.114252,0.14973 0.16549,0.224569 0.05121,0.07487 0.104391,0.151697 0.159562,0.230495 0.05908,0.07486 0.106359,0.149704 0.141838,0.224569 0,0 0,0.0019 0,0.0058 0,0 0,0.0058 0,0.01772 0,0 0,0.0019 0,0.0058 0,0 0,0.0059 0,0.01772 0.01575,0.01576 0.02756,0.03152 0.03545,0.04728 0.01182,0.01182 0.01772,0.02956 0.01772,0.0532 z m 3.149966,-2.493974 c 0,0.01181 0,0.0256 0,0.04137 0,0.01182 0,0.02363 0,0.03545 -0.07487,0.224594 -0.145771,0.445229 -0.212768,0.661906 -0.06697,0.212767 -0.137878,0.419609 -0.212744,0.620552 -0.09062,0.252154 -0.189115,0.502317 -0.295499,0.750538 -0.106384,0.248221 -0.210775,0.486582 -0.313227,0.71511 -0.03545,0.08667 -0.07288,0.16743 -0.112285,0.242296 -0.03938,0.07487 -0.0847,0.135935 -0.13591,0.183214 -0.03941,0.06303 -0.08276,0.120153 -0.130037,0.17139 -0.04332,0.05121 -0.0847,0.09653 -0.124109,0.135912 -0.05121,0.03545 -0.102426,0.06698 -0.153639,0.09456 -0.05124,0.02759 -0.10835,0.05517 -0.171389,0.08274 -0.06304,0.01182 -0.130012,0.02169 -0.200943,0.02956 -0.06697,0.01182 -0.143803,0.01772 -0.230493,0.01772 -0.06304,0 -0.126078,-0.0019 -0.189117,-0.0058 -0.06303,0 -0.126076,-0.0058 -0.189115,-0.01772 0,0 -0.0058,0 -0.01772,0 -0.0079,0 -0.01772,0 -0.02956,0 -0.05121,-0.01182 -0.09849,-0.04138 -0.141836,-0.08866 -0.04332,-0.04728 -0.065,-0.102425 -0.065,-0.165463 0,-0.01182 0,-0.01969 0,-0.02365 0,-0.0039 0,-0.01182 0,-0.02363 v -0.02956 l 0.0532,-0.177291 c 0,-0.0039 0,-0.01182 0,-0.02365 0.01179,-0.05121 0.04135,-0.09653 0.08864,-0.135937 0.04727,-0.04332 0.102451,-0.065 0.165489,-0.065 h 0.02362 c 0.0039,0 0.01182,0 0.02366,0 0.03938,0 0.07288,0.0039 0.100459,0.01182 0.03152,0.0079 0.065,0.01182 0.100479,0.01182 0.07484,0 0.141837,-0.0099 0.200918,-0.02956 0.06303,-0.02365 0.114275,-0.05517 0.153661,-0.09455 0.03941,-0.03939 0.07683,-0.08669 0.112285,-0.141836 0.03545,-0.0591 0.06501,-0.120177 0.08865,-0.183216 -0.09849,-0.189115 -0.195041,-0.390032 -0.289598,-0.6028 -0.0906,-0.216702 -0.187124,-0.445204 -0.289575,-0.685532 -0.07487,-0.189117 -0.151696,-0.390059 -0.230495,-0.602827 -0.07484,-0.212743 -0.149703,-0.431411 -0.224568,-0.65598 0,-0.01576 0,-0.02956 0,-0.04138 0,-0.01181 0,-0.02365 0,-0.03546 0,-0.07487 0.02562,-0.135929 0.07683,-0.183208 0.05517,-0.04728 0.114251,-0.07092 0.177289,-0.07092 h 0.354606 c 0.06303,0 0.11425,0.01772 0.153662,0.05318 0.03939,0.03152 0.07091,0.07289 0.09456,0.124108 0.01179,0.05122 0.02363,0.102437 0.03545,0.153663 0.01576,0.04728 0.02955,0.09653 0.04135,0.147737 0.02365,0.09062 0.04728,0.179256 0.07093,0.265948 0.02759,0.08669 0.05515,0.175323 0.08274,0.265946 0.02366,0.08667 0.05121,0.173357 0.08274,0.260023 0.03548,0.08669 0.067,0.167455 0.09455,0.24232 0.02366,0.0906 0.05124,0.173356 0.08276,0.248196 0.03545,0.07487 0.065,0.143829 0.08864,0.206868 0.02759,-0.06304 0.0532,-0.132004 0.07683,-0.206868 0.02759,-0.07484 0.0532,-0.157596 0.07683,-0.248196 0.02366,-0.08669 0.04728,-0.169422 0.07094,-0.24822 0.02756,-0.08274 0.05515,-0.167457 0.08274,-0.254123 0.02363,-0.09062 0.04728,-0.179256 0.0709,-0.265946 0.02759,-0.08669 0.0532,-0.175324 0.07683,-0.265948 0.01182,-0.05121 0.02759,-0.114251 0.04728,-0.189114 0.0197,-0.07486 0.02955,-0.112286 0.02955,-0.112286 0.01182,-0.05122 0.04138,-0.09259 0.08865,-0.124108 0.04728,-0.03546 0.102425,-0.05318 0.165464,-0.05318 h 0.378231 c 0.06303,0.01181 0.120178,0.04531 0.171391,0.100459 0.05121,0.05516 0.07683,0.114258 0.07683,0.177297 z M 5.3188754,9.2282679 c 0.1379033,0 0.2560882,0.049249 0.3546049,0.1477475 0.098491,0.098496 0.1477373,0.2166941 0.1477373,0.3545924 v 4.5387852 c 0,0.153661 -0.051212,0.27974 -0.1536629,0.378231 -0.098491,0.102426 -0.222602,0.153663 -0.3723063,0.153663 H 0.78009596 C 0.64219768,14.789461 0.52400023,14.732323 0.42550363,14.629898 0.32700449,14.531381 0.27775619,14.411229 0.27775619,14.269393 V 9.7306078 c 0,-0.1378983 0.0492483,-0.2560958 0.14774744,-0.3545924 0.0984966,-0.098499 0.21669405,-0.1477475 0.35459233,-0.1477475 z m 0,-0.2541243 H 0.78009596 c -0.20093692,0 -0.37823182,0.076829 -0.53188951,0.2304849 C 0.09848968,9.3543452 0.02363136,9.5296708 0.02363136,9.7306078 v 4.5387852 c 0,0.216702 0.07485835,0.395958 0.22457509,0.537795 0.15365769,0.14577 0.33095259,0.218669 0.53188951,0.218669 H 5.3188754 c 0.212768,0 0.3920248,-0.07487 0.5377952,-0.22457 0.1457706,-0.149729 0.2186685,-0.327019 0.2186685,-0.531894 V 9.7306078 c 0,-0.200937 -0.076831,-0.3762626 -0.2304945,-0.5259793 C 5.6951404,9.0509731 5.5198173,8.9741436 5.3188754,8.9741436 Z M 4.2373592,13.134697 H 1.9679785 l -0.8864797,-1.41247 1.5661268,0.254123 0.4550382,0.07683 -0.029528,-0.07683 -0.076831,-0.555522 0.7091847,-0.626444 1.3119854,0.927843 -0.809643,-0.12411 0.5082427,0.809669 z M 20.371318,9.9847321 c -0.02363,0 -0.04924,0 -0.07683,0 -0.02363,0 -0.04728,0 -0.07091,0 -0.02759,0 -0.05517,0 -0.08273,0 -0.02759,-0.0039 -0.0591,-0.01182 -0.09456,-0.02364 v -0.957398 c 0.02362,0 0.04728,-0.00394 0.07091,-0.011821 0.02759,-0.011821 0.05318,-0.01773 0.07683,-0.01773 0.02759,0 0.05318,0 0.07683,0 0.02759,0 0.05317,0 0.07683,0 0.02363,0 0.05121,0.00197 0.08274,0.00591 0.03545,0 0.06697,0.00788 0.09456,0.023642 0.02363,0 0.04727,0.00591 0.07091,0.017729 0.02366,0.00788 0.04138,0.017729 0.0532,0.02955 0.02759,0.011819 0.04728,0.025609 0.0591,0.041368 0.01576,0.011819 0.02954,0.023639 0.04135,0.035458 0.01182,0.011821 0.01772,0.02955 0.01772,0.05319 0.0039,0.023639 0.0058,0.047279 0.0058,0.070919 0,0.039399 -0.01182,0.076829 -0.03548,0.1122868 -0.0197,0.03152 -0.04924,0.05319 -0.08863,0.065011 0.02759,0.011819 0.05121,0.025609 0.07091,0.041368 0.02365,0.01576 0.04138,0.035458 0.0532,0.059097 0.01575,0.02758 0.02362,0.049249 0.02362,0.065008 0.0039,0.01576 0.0058,0.03743 0.0058,0.065011 0,0.047279 -0.0079,0.090617 -0.02366,0.130016 -0.01576,0.039399 -0.04138,0.070919 -0.07683,0.094558 -0.03939,0.039399 -0.08667,0.06698 -0.141838,0.08274 -0.05121,0.01182 -0.114251,0.01773 -0.189116,0.01773 z M 20.247207,9.3819259 h 0.100479 c 0.03938,0 0.0709,0 0.09456,0 0.02362,-0.00394 0.04332,-0.013791 0.05908,-0.02955 0.01182,-0.011821 0.02169,-0.023639 0.02955,-0.035461 0.01182,-0.011819 0.01772,-0.023639 0.01772,-0.035458 0,-0.02758 -0.0058,-0.047279 -0.01772,-0.0591 -0.0079,-0.011819 -0.01772,-0.017729 -0.02955,-0.017729 -0.01576,-0.011819 -0.03545,-0.019701 -0.05908,-0.023639 -0.01973,-0.00394 -0.04335,-0.00591 -0.07093,-0.00591 -0.01182,0 -0.02363,0 -0.03545,0 -0.0079,0 -0.01182,0 -0.01182,0 -0.01576,0 -0.02955,0 -0.04135,0 -0.0079,0 -0.01182,0 -0.01182,0 v 0.2068474 z m 0,0.1477449 v 0.254124 c 0.01182,0 0.01972,0 0.02365,0 0.0039,0 0.01182,0 0.02363,0 0.01575,0 0.02759,0 0.03548,0 0.01179,0 0.01772,0 0.01772,0 0.03938,0 0.0709,0 0.09456,0 0.02362,-0.00394 0.04332,-0.011819 0.05908,-0.023637 0.02366,-0.015759 0.03745,-0.02955 0.04138,-0.041371 0.0039,-0.01576 0.0058,-0.035458 0.0058,-0.059097 0,-0.02758 -0.0058,-0.047279 -0.01772,-0.0591 -0.0079,-0.015759 -0.01772,-0.03152 -0.02955,-0.047279 -0.01575,-0.011819 -0.03545,-0.017729 -0.05908,-0.017729 -0.02366,-0.00394 -0.05517,-0.00591 -0.09456,-0.00591 z m 0.904226,0.4314213 V 8.9741436 h 0.65598 V 9.151439 h -0.449138 v 0.200937 h 0.401859 v 0.1772948 h -0.401859 v 0.2304869 h 0.478691 V 9.9315422 H 21.151433 Z M 22.894829,8.9741436 V 9.151439 h -0.3014 v 0.8096531 h -0.23047 V 9.1750785 H 22.061534 V 8.9741436 Z m 0.856947,0.9869485 c 0,-0.011819 -0.0039,-0.027578 -0.01182,-0.047279 -0.0079,-0.023639 -0.01182,-0.041368 -0.01182,-0.05319 0,-0.01576 -0.0058,-0.033489 -0.01772,-0.053187 -0.0079,-0.019701 -0.01182,-0.035461 -0.01182,-0.047279 h -0.378232 c 0,0.011819 -0.0039,0.027578 -0.01179,0.047279 -0.0079,0.019698 -0.01182,0.037427 -0.01182,0.053187 -0.03545,0.023639 -0.05714,0.043341 -0.065,0.0591 -0.0079,0.01576 -0.01182,0.02955 -0.01182,0.041368 h -0.248221 c 0.01182,-0.05122 0.02759,-0.1024378 0.04728,-0.1536554 0.02366,-0.051219 0.04138,-0.1004678 0.0532,-0.1477475 0.01179,-0.051219 0.02756,-0.096531 0.04728,-0.1359264 0.02363,-0.043341 0.04136,-0.08274 0.05318,-0.1181999 0.01182,-0.039397 0.02759,-0.076826 0.04728,-0.112287 0.02362,-0.039399 0.04138,-0.078798 0.05317,-0.1181974 0.01182,-0.035458 0.02562,-0.070919 0.04138,-0.1063765 0.01576,-0.03546 0.03545,-0.06698 0.0591,-0.094558 h 0.200916 c 0.01182,0.039399 0.02759,0.074858 0.04728,0.1063769 0.02365,0.02758 0.04138,0.0591 0.0532,0.094558 0.01182,0.039399 0.02559,0.078799 0.04135,0.1181974 0.01576,0.035461 0.03548,0.07289 0.0591,0.112287 0.01182,0.035461 0.02759,0.076829 0.04728,0.1241079 0.02366,0.047279 0.04138,0.090619 0.0532,0.1300184 0.01179,0.035458 0.02756,0.078799 0.04728,0.130016 0.02362,0.05122 0.04136,0.1083484 0.05318,0.1713875 z M 23.474003,9.2046285 c 0,0.011819 -0.0019,0.019701 -0.0058,0.023639 0,0.00394 -0.0058,0.011821 -0.01772,0.023639 0,0.011819 -0.0058,0.025609 -0.01775,0.041368 -0.0079,0.011821 -0.01179,0.023639 -0.01179,0.035461 0,0.011819 -0.0058,0.029548 -0.01772,0.05319 -0.0079,0.019698 -0.01775,0.035458 -0.02956,0.047279 -0.01182,0.027578 -0.01973,0.049249 -0.02366,0.065008 -0.0039,0.01576 -0.01379,0.035458 -0.02956,0.059097 h 0.277774 c -0.01182,-0.023639 -0.01969,-0.043338 -0.02366,-0.059097 -0.0039,-0.01576 -0.0118,-0.037431 -0.02363,-0.065008 -0.01182,-0.023642 -0.02165,-0.043341 -0.02956,-0.0591 -0.0039,-0.01576 -0.01182,-0.02955 -0.02362,-0.041368 -0.01182,-0.011821 -0.01973,-0.023639 -0.02366,-0.035461 0,-0.01576 0,-0.02955 0,-0.041368 0.01182,0 0.01379,-0.00394 0.0058,-0.011819 -0.0039,-0.011821 -0.0058,-0.023642 -0.0058,-0.035461 z" />
</svg>
