<svg xmlns="http://www.w3.org/2000/svg" width="1em" height="1em" viewBox="0 0 24 24">
  <path fill-rule="evenodd" clip-rule="evenodd" d="M7.27325 5.04275C7.95135 4.36465 8.84458 4 9.71445 4C10.7075 4 11.6643 4.38223 12.3103 5.10002L12.3279 5.11956L12.3465 5.13816C13.0382 5.82984 13.4846 6.82291 13.4846 7.77017C13.4846 9.07113 12.8765 10.1918 11.9119 10.8595L9.27988 12.6817H12.4812C12.5272 12.6817 12.6189 12.6907 12.7977 12.7242C12.904 12.7441 13.0034 12.7649 13.1184 12.789L13.1186 12.7891L13.1186 12.7891C13.2091 12.808 13.3092 12.829 13.4299 12.8531C14.2594 13.019 14.7151 13.238 15.1655 13.4739C15.2122 13.4983 15.2596 13.5235 15.308 13.5491C15.7593 13.7882 16.2928 14.0709 17.1042 14.2737L17.1429 14.2834L17.1823 14.29C17.2119 14.2949 17.2457 14.3008 17.2836 14.3074C17.5698 14.3573 18.0824 14.4467 18.6466 14.4467C19.066 14.4467 19.5547 14.3988 20.0499 14.2348C19.8412 14.9262 19.5231 15.694 19.079 16.392L19.0719 16.4031L19.0651 16.4144L19.0321 16.4696C18.7287 16.977 18.0576 18.0996 16.8508 18.9846L16.8415 18.9914L16.8324 18.9984C15.1882 20.2631 12.8269 20.9087 10.6028 20.8426C8.34691 20.7756 6.51702 19.9952 5.67716 18.7537L5.6635 18.7335L5.64888 18.714C5.48053 18.4895 4.99025 17.552 4.99025 16.3565C4.99025 15.2935 5.49466 14.5874 6.10629 13.7311L6.11578 13.7179L6.11789 13.7149L6.11789 13.7149C6.40041 13.3194 6.76218 12.8129 6.95135 12.2454C7.16468 11.6054 7.15633 10.9122 6.79274 10.1851L6.51635 9.63227H5.89831C5.49945 9.63227 4.57092 9.54239 3.89598 8.93494L3.87439 8.91551L3.85171 8.89737C3.76305 8.82644 3.68013 8.75114 3.60344 8.67365C3.63651 8.67438 3.67004 8.67477 3.70404 8.67477C4.37809 8.67477 4.96233 8.56384 5.35591 8.43264L5.98581 8.22268L6.03674 7.56066C6.11044 6.60254 6.54924 5.76676 7.27325 5.04275ZM9.71445 2C8.29464 2 6.89819 2.58939 5.85903 3.62854C5.03536 4.45222 4.40919 5.46146 4.15261 6.65024C4.01765 6.66521 3.86689 6.67477 3.70404 6.67477C3.3665 6.67477 3.11531 6.60995 2.87001 6.54305L2.84156 6.53522L2.84155 6.53522C2.73843 6.50674 2.55559 6.45625 2.38483 6.43859C2.17773 6.41716 1.73662 6.4153 1.37507 6.77685C0.970142 7.18178 0.982776 7.70834 1.01345 7.96084C1.05038 8.26475 1.15827 8.56792 1.29 8.83912C1.55317 9.38094 1.99597 9.96809 2.57987 10.441C3.40051 11.1695 4.35809 11.4562 5.06835 11.5664C5.06402 11.5817 5.05921 11.5972 5.05398 11.6129C4.9753 11.849 4.80176 12.1165 4.48831 12.5554L4.40931 12.6656C3.8314 13.4708 2.99025 14.6427 2.99025 16.3565C2.99025 18.0016 3.62809 19.3404 4.03319 19.8928C5.39112 21.882 7.98929 22.7659 10.5434 22.8417C13.1333 22.9187 15.967 22.1831 18.0428 20.5906C19.5763 19.4628 20.419 18.049 20.7395 17.5113L20.7737 17.4541C21.5132 16.2881 21.954 15.0096 22.1751 14.0081C22.2859 13.5064 22.3482 13.044 22.3578 12.6751C22.3624 12.4975 22.3563 12.2958 22.3179 12.1064C22.2992 12.0143 22.2633 11.8747 22.1849 11.7297C22.1123 11.5952 21.9334 11.3297 21.5745 11.21L21.4205 11.1587H21.2583C20.7577 11.1587 20.4598 11.4819 20.3837 11.5655C20.319 11.6363 20.2286 11.7552 20.1902 11.8057L20.1901 11.8058L20.1738 11.8271C20.0884 11.9358 19.9906 12.0448 19.8081 12.1491L19.7874 12.1609L19.7674 12.1737C19.4611 12.3686 19.076 12.4467 18.6466 12.4467C18.2671 12.4467 17.9281 12.3885 17.6354 12.3383L17.5528 12.3242C17.0064 12.1836 16.6721 12.0073 16.2378 11.7782L16.2375 11.778C16.1908 11.7534 16.1429 11.7281 16.0935 11.7022C15.6668 11.4787 15.1863 11.2451 14.491 11.0509C15.1275 10.1149 15.4846 8.9817 15.4846 7.77017C15.4846 6.24615 14.7946 4.76739 13.7791 3.74247C12.7088 2.56552 11.1937 2 9.71445 2ZM9.61901 7.29314C9.61901 7.92542 9.10645 8.43798 8.47417 8.43798C7.84189 8.43798 7.32933 7.92542 7.32933 7.29314C7.32933 6.66086 7.84189 6.1483 8.47417 6.1483C9.10645 6.1483 9.61901 6.66086 9.61901 7.29314Z" fill="currentColor"/>
</svg>