<svg fill="currentColor" viewBox="0 0 24 24" id="duck" height="1em" width="1em">
      <path d="M15.4922 6.00781C15.9141 6.00781 16.2656 6.15625 16.5469 6.45312C16.8438 6.73438 16.9922 7.08594 16.9922 7.50781C16.9922 7.91406 16.8438 8.26562 16.5469 8.5625C16.2656 8.85938 15.9141 9.00781 15.4922 9.00781C15.0859 9.00781 14.7344 8.85938 14.4375 8.5625C14.1406 8.26562 13.9922 7.91406 13.9922 7.50781C13.9922 7.08594 14.1406 6.73438 14.4375 6.45312C14.7344 6.15625 15.0859 6.00781 15.4922 6.00781ZM13.9922 3.00781C13.3047 3.00781 12.6562 3.14062 12.0469 3.40625C11.4375 3.65625 10.9062 4.00781 10.4531 4.46094C10.0156 4.91406 9.66406 5.44531 9.39844 6.05469C9.13281 6.66406 9 7.3125 9 8C9 8.84375 9.19531 9.625 9.58594 10.3438C9.97656 11.0625 10.4922 11.6484 11.1328 12.1016C10.3516 12.1797 9.52344 12.3203 8.64844 12.5234C7.77344 12.7266 6.89062 13.0547 6 13.5078C4.5 14.2578 3.45312 14.3594 2.85938 13.8125C2.28125 13.2656 1.99219 12.9922 1.99219 12.9922C1.99219 12.9922 2.07812 13.4609 2.25 14.3984C2.42188 15.3359 2.75781 16.3672 3.25781 17.4922C3.75781 18.6172 4.46094 19.6484 5.36719 20.5859C6.28906 21.5234 7.5 21.9922 9 21.9922H15C15 21.9922 15.2578 21.9688 15.7734 21.9219C16.3047 21.875 16.8828 21.6953 17.5078 21.3828C18.1328 21.0703 18.7031 20.5781 19.2188 19.9062C19.7344 19.2188 19.9922 18.25 19.9922 17C19.9922 15.5 19.5312 14.375 18.6094 13.625C17.7031 12.875 17.5 12 18 11C20 11 21.1641 10.4219 21.4922 9.26562C21.8359 8.09375 22.0078 7.50781 22.0078 7.50781C21.5078 7.75781 20.9766 7.89062 20.4141 7.90625C19.8516 7.90625 19.3828 7.82031 19.0078 7.64844C18.9609 6.99219 18.7969 6.38281 18.5156 5.82031C18.2344 5.25781 17.8672 4.76562 17.4141 4.34375C16.9766 3.92188 16.4609 3.59375 15.8672 3.35938C15.2891 3.125 14.6641 3.00781 13.9922 3.00781Z" />
</svg>
