<svg fill="currentColor" viewBox="0 0 24 24" id="duckyLogo" height="1em" width="1em">
      <path d="m 14.77066,11.221026 v 2.443154 c 0,0.06295 -0.01769,0.118014 -0.05311,0.165223 -0.03543,0.04328 -0.0846,0.07279 -0.147548,0.08853 -0.05114,0.01178 -0.108194,0.02359 -0.171141,0.03541 -0.05899,0.01181 -0.119979,0.02362 -0.182926,0.0354 -0.114085,0.01574 -0.234089,0.02951 -0.359983,0.04133 -0.121966,0.0079 -0.245897,0.01181 -0.371792,0.01181 -0.125895,0 -0.243909,-0.008 -0.354066,-0.02362 -0.10623,-0.01574 -0.196724,-0.04129 -0.271454,-0.07672 -0.09049,-0.03932 -0.169178,-0.08262 -0.236054,-0.129823 -0.06295,-0.04721 -0.120002,-0.09638 -0.171141,-0.147523 -0.04721,-0.06294 -0.08853,-0.131812 -0.123931,-0.206568 -0.03541,-0.07473 -0.06098,-0.157369 -0.07672,-0.247836 -0.02361,-0.08657 -0.03737,-0.175068 -0.04132,-0.265563 -0.0039,-0.09049 -0.0059,-0.186878 -0.0059,-0.289156 v -1.434023 c 0,-0.07475 0.02558,-0.135729 0.07672,-0.182941 0.05114,-0.04721 0.108194,-0.07082 0.171142,-0.07082 h 0.330473 c 0.07473,0 0.135715,0.02754 0.182926,0.08262 0.04721,0.05115 0.07083,0.108192 0.07083,0.171139 v 1.310099 c 0,0.13768 0.0058,0.257683 0.01769,0.359959 0.01574,0.09837 0.04328,0.179023 0.08261,0.241969 0.03541,0.06295 0.0846,0.108194 0.147549,0.135715 0.06688,0.02754 0.151452,0.04133 0.253753,0.04133 0.02359,0 0.05311,0 0.0885,0 0.03543,0 0.0728,0 0.112123,0 0.03935,0 0.07279,0 0.100338,0 0.02754,-0.0039 0.0531,-0.01181 0.07672,-0.02359 v -2.065482 c 0,-0.07475 0.02555,-0.135729 0.07672,-0.18294 0.05506,-0.04721 0.114086,-0.07082 0.177033,-0.07082 h 0.324557 c 0.08657,0 0.15344,0.02754 0.200651,0.08262 0.05114,0.05115 0.07672,0.108192 0.07672,0.171138 z M 11.524944,11.06759 c -0.05114,-0.125895 -0.116075,-0.239986 -0.194759,-0.342275 -0.07473,-0.102289 -0.161297,-0.196711 -0.259646,-0.283263 -0.102303,-0.07475 -0.210471,-0.141631 -0.324582,-0.200646 -0.114085,-0.06295 -0.241945,-0.114091 -0.383576,-0.153434 -0.137704,-0.03934 -0.283264,-0.06885 -0.4367046,-0.088525 -0.1534411,-0.023603 -0.318665,-0.03541 -0.4956988,-0.03541 -0.074751,0 -0.161321,0.00201 -0.259669,0.00595 -0.09835,0 -0.2045798,0.00595 -0.3186656,0.017705 -0.074752,0 -0.1455593,0.00595 -0.2124597,0.017705 -0.062945,0.0079 -0.1258951,0.01967 -0.1888421,0.03541 0,0 -0.00393,0 -0.011778,0 -0.00786,0 -0.011816,0 -0.011816,0 -0.062945,0.0118 -0.1121215,0.04131 -0.1475235,0.08853 -0.035429,0.04327 -0.053124,0.09639 -0.053124,0.159337 v 3.42277 c 0,0.06295 0.017695,0.118014 0.053124,0.165224 0.0354,0.04721 0.084573,0.07673 0.1475235,0.08853 0,0 0.00393,0 0.011816,0 0.00786,0 0.011778,0 0.011778,0 0.062945,0.01181 0.1258941,0.01967 0.1888421,0.02358 0.066897,0.0039 0.1377033,0.01378 0.2124597,0.02951 0.1022774,0.01181 0.2006514,0.01967 0.2950729,0.02362 0.098348,0 0.1848878,0 0.2596441,0 0.1770328,0 0.3422826,-0.01181 0.4957238,-0.03543 0.1573692,-0.02359 0.3107852,-0.0531 0.4602972,-0.0885 0.141631,-0.03935 0.271454,-0.09049 0.389493,-0.153441 0.121942,-0.06294 0.228172,-0.137703 0.318665,-0.224244 0.09835,-0.09049 0.184914,-0.186879 0.259646,-0.28918 0.07868,-0.102275 0.14362,-0.216362 0.194759,-0.342257 0.04721,-0.125895 0.08262,-0.263599 0.106229,-0.413111 0.02753,-0.153416 0.04129,-0.318664 0.04129,-0.495698 0,-0.188842 -0.01377,-0.359983 -0.04129,-0.513424 -0.02361,-0.153425 -0.05902,-0.293102 -0.106229,-0.418997 z m -1.085843,1.84122 c -0.114086,0.114086 -0.253753,0.196699 -0.419004,0.247837 -0.1612961,0.05117 -0.3481739,0.07672 -0.5606091,0.07672 -0.039352,0 -0.076718,0 -0.1121475,0 -0.0354,0 -0.064911,0 -0.088505,0 -0.027545,0 -0.05509,0 -0.082616,0 -0.023613,0 -0.047206,0 -0.070819,0 V 10.74302 c 0.023613,0 0.051139,0 0.082616,0 0.035429,-0.0039 0.066897,-0.01181 0.094422,-0.0236 0.035429,0 0.066897,0 0.094423,0 0.027545,0 0.05509,0 0.082635,0 0.2242445,0 0.4189783,0.02557 0.5842286,0.07672 0.165223,0.05115 0.297035,0.133764 0.395384,0.247855 0.102277,0.114092 0.177034,0.247857 0.224244,0.401298 0.05114,0.153415 0.07672,0.330474 0.07672,0.531099 0.01574,0.200652 -0.0019,0.381638 -0.05311,0.542934 -0.05117,0.157369 -0.133776,0.287192 -0.247862,0.389493 z m 7.252721,0.802579 c 0,0.06295 -0.01769,0.11605 -0.05312,0.159333 -0.03147,0.03932 -0.07277,0.0708 -0.123932,0.09441 0,0 -0.0039,0 -0.01179,0 -0.0079,0 -0.01182,0 -0.01182,0 -0.02754,0 -0.04918,0.0039 -0.06491,0.01181 -0.01574,0.008 -0.0374,0.01179 -0.06491,0.01179 -0.07475,0.01574 -0.151476,0.02951 -0.230161,0.04133 -0.07475,0.0079 -0.157368,0.01181 -0.247861,0.01181 -0.137679,0 -0.263574,-0.01181 -0.377683,-0.03543 -0.114075,-0.02359 -0.222269,-0.05311 -0.324545,-0.08851 -0.102303,-0.03934 -0.192795,-0.08852 -0.27148,-0.147536 -0.07473,-0.05899 -0.143596,-0.119977 -0.206543,-0.182924 -0.06294,-0.07475 -0.119977,-0.151478 -0.171141,-0.230162 -0.04721,-0.08262 -0.08262,-0.173106 -0.106205,-0.271453 -0.02362,-0.102303 -0.04721,-0.20458 -0.07083,-0.306882 -0.01967,-0.102277 -0.02951,-0.210472 -0.02951,-0.324557 0,-0.114086 0.0059,-0.220316 0.01769,-0.31869 0.01574,-0.102277 0.04328,-0.196698 0.08264,-0.283263 0.03933,-0.102277 0.08262,-0.192771 0.129822,-0.271455 0.05114,-0.07869 0.108194,-0.157368 0.171141,-0.236052 0.06294,-0.07472 0.135716,-0.137687 0.218354,-0.188832 0.08654,-0.05114 0.173105,-0.09638 0.259645,-0.13573 0.102302,-0.03934 0.204579,-0.06885 0.306881,-0.08852 0.106205,-0.02361 0.22228,-0.03541 0.348174,-0.03541 0.07475,0 0.149488,0.0059 0.224244,0.0177 0.07475,0.0079 0.143595,0.01771 0.206543,0.0295 0.02361,0 0.04721,0.0058 0.07083,0.0177 0.02753,0.0079 0.05311,0.01967 0.07672,0.03541 0.05114,0.0118 0.09243,0.04131 0.123905,0.08852 0.03543,0.04328 0.05312,0.09638 0.05312,0.159335 0,0.01574 0,0.02559 0,0.02951 0,0.0039 0,0.01179 0,0.02358 v 0.02362 l -0.04721,0.177032 v 0.02362 c -0.01574,0.05114 -0.04721,0.09441 -0.09442,0.129822 -0.04328,0.03147 -0.09639,0.04721 -0.159333,0.04721 -0.01182,0 -0.01969,0 -0.02361,0 -0.0039,0 -0.01377,0 -0.02951,0 0,0 -0.0039,0 -0.01179,0 -0.0079,0 -0.01182,0 -0.01182,0 -0.05114,-0.01181 -0.102303,-0.01769 -0.153442,-0.01769 -0.05114,-0.004 -0.108193,-0.0059 -0.171141,-0.0059 -0.125894,0 -0.234089,0.01967 -0.324557,0.05901 -0.09049,0.03541 -0.167213,0.09049 -0.23016,0.165251 -0.06294,0.05114 -0.112121,0.125894 -0.147523,0.224244 -0.03543,0.09835 -0.05312,0.216387 -0.05312,0.354066 0,0.141631 0.01377,0.263597 0.04133,0.365899 0.02754,0.102278 0.07277,0.190806 0.135714,0.265538 0.06294,0.07475 0.143621,0.131812 0.241969,0.171142 0.102278,0.03543 0.222281,0.05312 0.359984,0.05312 0.05114,0 0.102278,0 0.153417,0 0.05117,-0.004 0.108193,-0.01181 0.17114,-0.02362 0.01574,0 0.03147,-0.0039 0.04721,-0.01181 0.01969,-0.0079 0.02951,-0.01178 0.02951,-0.01178 0.01182,0 0.01967,0 0.02361,0 0.0079,0 0.0177,0 0.02951,0 0.06294,0 0.116049,0.01769 0.159332,0.0531 0.04721,0.03541 0.07672,0.08457 0.0885,0.147523 l 0.02951,0.20065 c 0.01182,0 0.0177,0.0039 0.0177,0.01181 0.004,0.0079 0.0059,0.01181 0.0059,0.01181 z m 3.121787,0 c 0,0.07868 -0.02754,0.141632 -0.08262,0.188843 -0.05115,0.04326 -0.108195,0.06491 -0.171142,0.06491 h -0.401302 c -0.03932,0 -0.08065,-0.0098 -0.123906,-0.02951 -0.03935,-0.02362 -0.06494,-0.04721 -0.07672,-0.07084 -0.02362,-0.03932 -0.04525,-0.07278 -0.06491,-0.100315 -0.01574,-0.02755 -0.03543,-0.06099 -0.05901,-0.100312 -0.03935,-0.06295 -0.07868,-0.123931 -0.118036,-0.182949 -0.03932,-0.06294 -0.08457,-0.120004 -0.135715,-0.171142 -0.03935,-0.06295 -0.08264,-0.121967 -0.129848,-0.177033 -0.04721,-0.05509 -0.09638,-0.114086 -0.147523,-0.177034 -0.05115,-0.04721 -0.100313,-0.09441 -0.147523,-0.141632 -0.04721,-0.05117 -0.09049,-0.09441 -0.129848,-0.129847 v 1.079948 c 0,0.06295 -0.02753,0.121968 -0.08262,0.177034 -0.05114,0.05114 -0.108194,0.07673 -0.171141,0.07673 h -0.324561 c -0.07475,0 -0.135739,-0.02558 -0.182949,-0.07673 -0.04721,-0.05506 -0.0708,-0.114086 -0.0708,-0.177034 V 9.8873274 c 0,-0.062945 0.01769,-0.1180267 0.0531,-0.165237 0.0354,-0.047206 0.08458,-0.076718 0.147523,-0.088514 l 0.377685,-0.047206 c 0,0 0.004,0 0.01181,0 0.01181,0 0.01769,0 0.01769,0 0.06294,0 0.120002,0.023603 0.171141,0.070819 0.05115,0.043274 0.07672,0.102289 0.07672,0.1770386 v 2.218888 c 0.03932,-0.05114 0.08065,-0.09638 0.12393,-0.135715 0.04721,-0.04328 0.09049,-0.09049 0.129822,-0.141631 0.05115,-0.05117 0.09639,-0.100339 0.13574,-0.147548 0.03932,-0.05115 0.07868,-0.102278 0.118014,-0.153441 0.0354,-0.05115 0.07083,-0.09638 0.106229,-0.135715 0.03932,-0.04328 0.07868,-0.09049 0.118015,-0.141634 0.02362,-0.02755 0.04328,-0.05115 0.05901,-0.07082 0.01574,-0.02361 0.02951,-0.04327 0.04133,-0.05901 0.02754,-0.02361 0.05901,-0.04524 0.09441,-0.06491 0.03541,-0.02361 0.0708,-0.03541 0.10623,-0.03541 h 0.330473 c 0.07473,0 0.133752,0.02754 0.177034,0.08262 0.04721,0.05115 0.0708,0.108192 0.0708,0.171139 0,0.02361 -0.0059,0.05116 -0.01769,0.08263 -0.008,0.03147 -0.01769,0.05506 -0.02951,0.0708 0,0 -0.0019,0.0039 -0.0059,0.01181 0,0.008 -0.0059,0.01181 -0.01769,0.01181 -0.03935,0.03932 -0.07475,0.07869 -0.10623,0.118013 -0.02755,0.03541 -0.06099,0.07083 -0.100313,0.106231 -0.09837,0.102277 -0.198687,0.208507 -0.300965,0.318664 -0.102301,0.110158 -0.210495,0.22228 -0.324581,0.336392 0.06295,0.05114 0.121967,0.108168 0.177033,0.171115 0.05509,0.06294 0.114086,0.131812 0.177034,0.206568 0.06295,0.07473 0.12393,0.151452 0.18295,0.230136 0.05902,0.07475 0.114086,0.149512 0.165249,0.224244 0.05115,0.07475 0.104241,0.151477 0.159332,0.23016 0.05899,0.07475 0.106205,0.149488 0.141632,0.224245 0,0 0,0.0019 0,0.0059 0,0 0,0.0059 0,0.01769 0,0 0,0.0019 0,0.0059 0,0 0,0.0059 0,0.01769 0.01574,0.01574 0.02753,0.03147 0.03541,0.04721 0.01181,0.01181 0.01769,0.02951 0.01769,0.05312 z m 3.145404,-2.490364 c 0,0.01181 0,0.02557 0,0.0413 0,0.01181 0,0.02359 0,0.03541 -0.07475,0.224269 -0.145559,0.444585 -0.212459,0.660948 -0.06688,0.21246 -0.137679,0.419003 -0.212435,0.619653 -0.09049,0.25179 -0.188842,0.50159 -0.295072,0.749453 -0.106231,0.24786 -0.210472,0.485878 -0.312773,0.714076 -0.0354,0.08654 -0.07277,0.167188 -0.112123,0.241944 -0.03932,0.07475 -0.08457,0.135738 -0.135713,0.182949 -0.03935,0.06295 -0.08263,0.119979 -0.129848,0.171142 -0.04326,0.05115 -0.08457,0.09638 -0.123931,0.135715 -0.05114,0.03541 -0.102277,0.06687 -0.153415,0.09441 -0.05117,0.02754 -0.108195,0.05509 -0.171142,0.08262 -0.06295,0.01181 -0.129822,0.02165 -0.200651,0.02951 -0.06687,0.01181 -0.143595,0.01769 -0.230162,0.01769 -0.06295,0 -0.125894,-0.0019 -0.188841,-0.0059 -0.06295,0 -0.125895,-0.0059 -0.188842,-0.0177 0,0 -0.0058,0 -0.01769,0 -0.0079,0 -0.01769,0 -0.02951,0 -0.05115,-0.01181 -0.09835,-0.04133 -0.141633,-0.08853 -0.04326,-0.04721 -0.06491,-0.102275 -0.06491,-0.165223 0,-0.01181 0,-0.01966 0,-0.02362 0,-0.0039 0,-0.01181 0,-0.02358 0,0 0,-0.0059 0,-0.0177 0,-0.008 0,-0.01181 0,-0.01181 l 0.05312,-0.177035 c 0,-0.004 0,-0.01181 0,-0.02362 0.01179,-0.05115 0.04129,-0.09638 0.08851,-0.13574 0.04721,-0.04326 0.102302,-0.06491 0.16525,-0.06491 0,0 0.0039,0 0.01181,0 0.008,0 0.01178,0 0.01178,0 0.004,0 0.01181,0 0.02362,0 0.03932,0 0.07277,0.004 0.100314,0.01181 0.03147,0.008 0.06491,0.01181 0.100338,0.01181 0.07473,0 0.141632,-0.0098 0.200625,-0.02951 0.06294,-0.02362 0.114112,-0.05509 0.153441,-0.09441 0.03935,-0.03932 0.07672,-0.08657 0.112123,-0.141631 0.0354,-0.05902 0.06491,-0.120003 0.08853,-0.18295 -0.09835,-0.188839 -0.194756,-0.389465 -0.289177,-0.601925 -0.09047,-0.216387 -0.186853,-0.444559 -0.289154,-0.684539 -0.07476,-0.188802 -0.151486,-0.389453 -0.23017,-0.601913 -0.07473,-0.212434 -0.149488,-0.430786 -0.224244,-0.65503 0,-0.01574 0,-0.02951 0,-0.04131 0,-0.01181 0,-0.02361 0,-0.03541 0,-0.07475 0.02558,-0.135732 0.07672,-0.182943 0.05509,-0.04721 0.114086,-0.07082 0.177033,-0.07082 h 0.354092 c 0.06294,0 0.114086,0.01771 0.15344,0.05311 0.03932,0.03147 0.0708,0.07279 0.09441,0.123929 0.01178,0.05114 0.02358,0.102289 0.03541,0.15344 0.01574,0.04721 0.02951,0.09638 0.0413,0.147524 0.02362,0.09049 0.04721,0.178996 0.07083,0.265562 0.02754,0.08656 0.05506,0.175069 0.08262,0.265562 0.02362,0.08654 0.05114,0.173105 0.08262,0.259645 0.03543,0.08657 0.0669,0.167215 0.09441,0.241971 0.02362,0.09047 0.05117,0.173105 0.08263,0.247836 0.03541,0.07475 0.06491,0.143621 0.0885,0.206568 0.02754,-0.06295 0.05312,-0.131813 0.07672,-0.206568 0.02754,-0.07473 0.05312,-0.157369 0.07672,-0.247836 0.02362,-0.08657 0.04721,-0.169178 0.07083,-0.247861 0.02753,-0.08262 0.05506,-0.167214 0.08262,-0.253755 0.02359,-0.09049 0.04721,-0.178998 0.0708,-0.265562 0.02754,-0.08657 0.05312,-0.175069 0.07672,-0.265562 0.01181,-0.05115 0.02754,-0.114086 0.04721,-0.18884 0.01967,-0.07475 0.02951,-0.112124 0.02951,-0.112124 0.01181,-0.05114 0.04132,-0.09246 0.08853,-0.123929 0.04721,-0.03541 0.102276,-0.05311 0.165224,-0.05311 h 0.377684 c 0.06295,0.0118 0.120003,0.04524 0.171142,0.10032 0.05114,0.05508 0.07672,0.114092 0.07672,0.17704 z M 5.3285541,9.2322817 c 0.1377036,0 0.2557173,0.049182 0.3540916,0.1475331 0.098349,0.098355 0.1475234,0.2163804 0.1475234,0.354079 v 4.5322142 c 0,0.15344 -0.051139,0.279335 -0.1534404,0.377684 -0.098349,0.102277 -0.2222799,0.15344 -0.3717673,0.15344 H 0.79634563 C 0.65864724,14.785426 0.54062085,14.728379 0.44226685,14.626092 0.34391036,14.527717 0.29473336,14.407739 0.29473336,14.266108 V 9.7338938 c 0,-0.1376986 0.0491774,-0.2557243 0.14753349,-0.354079 0.098354,-0.098357 0.21638039,-0.1475331 0.35407878,-0.1475331 z m 0,-0.2537563 H 0.79634563 c -0.20064592,0 -0.37768402,0.076718 -0.53111937,0.2301512 C 0.11572654,9.3581767 0.04097644,9.5332483 0.04097644,9.7338938 v 4.5322132 c 0,0.216387 0.07474962,0.395385 0.22424982,0.537018 0.15343545,0.145556 0.33047354,0.21835 0.53111947,0.21835 H 5.3285541 c 0.2124598,0 0.391457,-0.07475 0.5370167,-0.224244 0.1455594,-0.149512 0.2183518,-0.326545 0.2183518,-0.531124 V 9.7338938 c 0,-0.2006455 -0.07672,-0.3757171 -0.2301608,-0.5252173 C 5.7042743,9.0552431 5.5292051,8.9785254 5.3285541,8.9785254 Z M 4.2486038,13.133054 H 1.9825085 L 1.0973122,11.72263 2.6611719,11.976383 3.115551,12.053113 3.086066,11.976383 3.009346,11.421666 3.717504,10.796131 5.0275898,11.72263 4.219119,11.598699 4.7266258,12.407195 Z" />
</svg>
