<svg fill="currentColor" viewBox="0 0 24 24" id="fish" height="1em" width="1em">
      <path d="M11 15.0078L11.75 12.0078C10.9375 11.9453 10.1562 11.8203 9.40625 11.6328C8.65625 11.4453 7.96875 11.2031 7.34375 10.9062C6.71875 10.5938 6.17969 10.2422 5.72656 9.85156C5.28906 9.46094 4.96094 9.03906 4.74219 8.58594C4.69531 8.82031 4.64062 9.04688 4.57812 9.26562C4.51562 9.48438 4.42969 9.67188 4.32031 9.82812C3.99219 10.4219 3.52344 10.7656 2.91406 10.8594C2.30469 10.9531 1.66406 11 0.992188 11C1.55469 11 1.94531 10.6562 2.16406 9.96875C2.38281 9.28125 2.49219 8.46094 2.49219 7.50781C2.49219 6.53906 2.38281 5.71094 2.16406 5.02344C1.94531 4.33594 1.55469 3.99219 0.992188 3.99219C1.66406 3.99219 2.30469 4.04688 2.91406 4.15625C3.52344 4.25 3.99219 4.58594 4.32031 5.16406C4.42969 5.33594 4.51562 5.53125 4.57812 5.75C4.64062 5.95312 4.69531 6.17969 4.74219 6.42969C5.07031 5.71094 5.67969 5.07812 6.57031 4.53125C7.46094 3.98438 8.49219 3.57812 9.66406 3.3125L8 0.0078125C9 0.0078125 9.96875 0.0390625 10.9062 0.101562C11.8594 0.148438 12.6641 0.335938 13.3203 0.664062C13.8984 0.945312 14.3672 1.32812 14.7266 1.8125C15.0859 2.29688 15.4062 2.82031 15.6875 3.38281C16.4219 3.55469 17.1094 3.78125 17.75 4.0625C18.3906 4.34375 18.9531 4.66406 19.4375 5.02344C19.9219 5.36719 20.3047 5.75 20.5859 6.17188C20.8672 6.59375 21.0078 7.03906 21.0078 7.50781C21.0078 7.97656 20.8594 8.42969 20.5625 8.86719C20.2656 9.28906 19.8672 9.67969 19.3672 10.0391C18.8672 10.3984 18.2812 10.7188 17.6094 11C16.9531 11.2812 16.25 11.5 15.5 11.6562C15.0781 12.2031 14.6719 12.7188 14.2812 13.2031C13.8906 13.6719 13.5234 14.0469 13.1797 14.3281C12.7578 14.6719 12.3672 14.875 12.0078 14.9375C11.6641 14.9844 11.3281 15.0078 11 15.0078ZM15.9922 6.00781C15.7266 6.00781 15.4922 6.10938 15.2891 6.3125C15.1016 6.5 15.0078 6.72656 15.0078 6.99219C15.0078 7.27344 15.1016 7.51562 15.2891 7.71875C15.4922 7.90625 15.7266 8 15.9922 8C16.2734 8 16.5078 7.90625 16.6953 7.71875C16.8984 7.51562 17 7.27344 17 6.99219C17 6.72656 16.8984 6.5 16.6953 6.3125C16.5078 6.10938 16.2734 6.00781 15.9922 6.00781Z" />
</svg>
