<svg fill="currentColor" viewBox="0 0 24 24" id="foodOff" height="1em" width="1em">
      <path d="M1.99219 6.26562L3.28125 5L21 22.7188L19.7344 24.0078L17.7188 21.9922H15.4922L15.2109 19.5078L12.9609 17.2344C12.9141 17.4531 12.7969 17.6406 12.6094 17.7969C12.4375 17.9375 12.2344 18.0078 12 18.0078H3C2.71875 18.0078 2.47656 17.9141 2.27344 17.7266C2.08594 17.5234 1.99219 17.2812 1.99219 17C1.99219 16.7188 2.08594 16.4844 2.27344 16.2969C2.47656 16.0938 2.71875 15.9922 3 15.9922H7.99219L9.49219 17.4922L10.9922 15.9922H11.7188L10.7344 15.0078H1.99219C1.99219 14.1797 2.28125 13.4766 2.85938 12.8984C3.45312 12.3047 4.16406 12.0078 4.99219 12.0078H7.73438L1.99219 6.26562ZM13.9922 9.00781H16.2188L15.0938 4.46094L16.8516 3.99219L18.0938 9.00781H22.0078L20.7422 19.9297L14.5312 13.7188L13.9922 9.00781ZM13.0078 18.9922C13.0078 19.8203 12.7109 20.5312 12.1172 21.125C11.5391 21.7031 10.8359 21.9922 10.0078 21.9922H4.99219C4.16406 21.9922 3.45312 21.7031 2.85938 21.125C2.28125 20.5312 1.99219 19.8203 1.99219 18.9922H13.0078Z" />
</svg>
