<svg fill="currentColor" viewBox="0 0 24 24" id="food" height="1em" width="1em">
      <path d="M14.4922 18.9922L12.9922 6.00781H15.2188L14.0938 1.46094L15.8516 0.992188L17.0938 6.00781H21.0078L19.5078 18.9922H14.4922ZM3.99219 9.00781H9.00781C9.83594 9.00781 10.5391 9.30469 11.1172 9.89844C11.7109 10.4766 12.0078 11.1797 12.0078 12.0078H0.992188C0.992188 11.1797 1.28125 10.4766 1.85938 9.89844C2.45312 9.30469 3.16406 9.00781 3.99219 9.00781ZM12.0078 15.9922C12.0078 16.8203 11.7109 17.5312 11.1172 18.125C10.5391 18.7031 9.83594 18.9922 9.00781 18.9922H3.99219C3.16406 18.9922 2.45312 18.7031 1.85938 18.125C1.28125 17.5312 0.992188 16.8203 0.992188 15.9922H12.0078ZM2 12.9922H6.99219L8.49219 14.4922L9.99219 12.9922H11C11.2812 12.9922 11.5156 13.0938 11.7031 13.2969C11.9062 13.4844 12.0078 13.7188 12.0078 14C12.0078 14.2812 11.9062 14.5234 11.7031 14.7266C11.5156 14.9141 11.2812 15.0078 11 15.0078H2C1.71875 15.0078 1.47656 14.9141 1.27344 14.7266C1.08594 14.5234 0.992188 14.2812 0.992188 14C0.992188 13.7188 1.08594 13.4844 1.27344 13.2969C1.47656 13.0938 1.71875 12.9922 2 12.9922Z" />
</svg>
