<svg fill="currentColor" viewBox="0 0 24 24" id="foodForkDrink" height="1em" width="1em">
      <path d="M2 0.991629C1.71875 0.991629 1.47656 1.09319 1.27344 1.29632C1.08594 1.48382 0.992188 1.71819 0.992188 1.99944V7.50725C0.992188 8.351 1.22656 9.10882 1.69531 9.78069C2.16406 10.4526 2.76562 10.9291 3.5 11.2104V17.4916C3.5 17.9135 3.64062 18.2729 3.92188 18.5698C4.21875 18.851 4.57812 18.9916 5 18.9916C5.42188 18.9916 5.77344 18.851 6.05469 18.5698C6.35156 18.2729 6.5 17.9135 6.5 17.4916V11.2104C7.23438 10.9291 7.83594 10.4526 8.30469 9.78069C8.77344 9.10882 9.00781 8.351 9.00781 7.50725V1.99944C9.00781 1.71819 8.90625 1.48382 8.70312 1.29632C8.51562 1.09319 8.28125 0.991629 8 0.991629C7.71875 0.991629 7.47656 1.09319 7.27344 1.29632C7.08594 1.48382 6.99219 1.71819 6.99219 1.99944V6.00725C6.99219 6.14788 6.94531 6.26507 6.85156 6.35882C6.75781 6.45257 6.64062 6.49944 6.5 6.49944C6.35938 6.49944 6.24219 6.45257 6.14844 6.35882C6.05469 6.26507 6.00781 6.14788 6.00781 6.00725V1.99944C6.00781 1.71819 5.90625 1.48382 5.70312 1.29632C5.51562 1.09319 5.28125 0.991629 5 0.991629C4.71875 0.991629 4.47656 1.09319 4.27344 1.29632C4.08594 1.48382 3.99219 1.71819 3.99219 1.99944V6.00725C3.99219 6.14788 3.94531 6.26507 3.85156 6.35882C3.75781 6.45257 3.64062 6.49944 3.5 6.49944C3.35938 6.49944 3.24219 6.45257 3.14844 6.35882C3.05469 6.26507 3.00781 6.14788 3.00781 6.00725V1.99944C3.00781 1.71819 2.90625 1.48382 2.70312 1.29632C2.51562 1.09319 2.28125 0.991629 2 0.991629ZM18.875 0.991629C18.8125 0.991629 18.75 1.01507 18.6875 1.06194C18.625 1.09319 18.5625 1.12444 18.5 1.15569L15.0078 3.24163V6.99163H11V9.00725H12.0078L12.9922 18.9916H18.9922L20 9.00725H21.0078V6.99163H17V4.34319L19.5078 2.84319C19.7578 2.70257 19.9062 2.50725 19.9531 2.25725C20.0156 2.00725 19.9766 1.75725 19.8359 1.50725C19.7266 1.31975 19.5859 1.18694 19.4141 1.10882C19.2422 1.01507 19.0625 0.976004 18.875 0.991629Z" />
</svg>
