<svg fill="currentColor" viewBox="0 0 24 24" id="foodVariant" height="1em" width="1em">
      <path d="M21.0078 15.9922C21.0078 17.1016 20.6172 18.0469 19.8359 18.8281C19.0547 19.6094 18.1094 20 17 20H14C12.8906 20 11.9453 19.6094 11.1641 18.8281C10.3828 18.0469 9.99219 17.1016 9.99219 15.9922V14H16.7891L19.5547 9.21875L21.1016 10.1328L18.875 14H21.0078V15.9922ZM8 20H0.992188C0.992188 19.25 0.992188 18.5 0.992188 17.75C1.00781 17 1.02344 16.2422 1.03906 15.4766C1.05469 14.7109 1.08594 13.9453 1.13281 13.1797C1.17969 12.3984 1.24219 11.6172 1.32031 10.8359C1.39844 10.1953 1.48438 9.55469 1.57812 8.91406C1.67188 8.27344 1.77344 7.625 1.88281 6.96875C1.99219 6.3125 2.10156 5.65625 2.21094 5C2.33594 4.32812 2.46875 3.66406 2.60938 3.00781H2V0.992188H6.99219V3.00781H6.40625C6.53125 3.66406 6.65625 4.32812 6.78125 5C6.90625 5.65625 7.02344 6.3125 7.13281 6.96875C7.24219 7.625 7.34375 8.27344 7.4375 8.91406C7.53125 9.55469 7.60938 10.1953 7.67188 10.8359C7.75 11.6172 7.8125 12.3984 7.85938 13.1797C7.90625 13.9453 7.9375 14.7109 7.95312 15.4766C7.98438 16.2422 8 17 8 17.75C8 18.5 8 19.25 8 20Z" />
</svg>
