<svg xmlns="http://www.w3.org/2000/svg" width="1em" height="1em" viewBox="0 0 24 24">
  <path fill-rule="evenodd" clip-rule="evenodd" d="M8.875 14.7927C8.92708 15.6098 8.94792 16.4146 8.96875 17.2317C9 18.0244 9 18.8293 9 19.622V23H1V21.9634C1 21.1829 1 20.3902 1.01042 19.5976C1.01042 18.8411 1.02052 18.061 1.03077 17.2689L1.03125 17.2317C1.05208 16.4146 1.08333 15.6098 1.125 14.7927C1.16667 13.9756 1.21875 13.1463 1.29167 12.3171C1.36458 11.622 1.4375 10.939 1.52083 10.2683C1.55027 10.0539 1.57868 9.84063 1.60703 9.62785C1.66897 9.16296 1.73062 8.7002 1.80208 8.23171L2.09375 6.17073C2.10069 6.12195 2.10764 6.06233 2.11458 6.00271C2.11806 5.9729 2.12153 5.94309 2.125 5.91463H1.64583V4H8.36458V5.91463H7.875L7.91667 6.15854C7.94688 6.35663 7.97797 6.55574 8.00918 6.75559C8.08555 7.24472 8.16261 7.73821 8.22917 8.23171L8.22917 8.23172C8.32292 8.91464 8.41667 9.59757 8.5 10.2683C8.58333 10.9512 8.65625 11.6341 8.70833 12.3171C8.78125 13.1463 8.83333 13.9756 8.875 14.7927ZM2.78125 20.9146H7.22917V19.6098C7.22917 18.8537 7.22917 18.0732 7.19792 17.2927C7.17708 16.4878 7.14583 15.7073 7.10417 14.9146C7.07292 14.122 7.02083 13.3293 6.94792 12.5244C6.89583 11.8659 6.82292 11.2195 6.73958 10.561C6.65625 9.90244 6.5625 9.23171 6.46875 8.56098C6.43222 8.32575 6.39697 8.08903 6.36165 7.85186C6.29627 7.41274 6.23065 6.97209 6.15625 6.53659L6.0625 5.91463H3.95833C3.94271 6.01829 3.92448 6.12195 3.90625 6.22561C3.88802 6.32927 3.86979 6.43293 3.85417 6.53659L3.5625 8.56098C3.45833 9.24389 3.375 9.90242 3.29167 10.5609L3.29167 10.561C3.26736 10.7805 3.2419 11 3.21643 11.2195C3.16551 11.6585 3.11458 12.0976 3.07292 12.5366C3 13.3171 2.94792 14.1098 2.90625 14.9146C2.86458 15.7073 2.84375 16.4878 2.82292 17.2683L2.82292 17.2683L2.82244 17.3049C2.81218 18.085 2.80208 18.8533 2.80208 19.6098C2.79167 20.0488 2.78125 20.4878 2.78125 20.9146ZM22.2699 12.875L20.7069 15.5638H22.4776V18.351C22.4776 19.6407 22.0185 20.7556 21.1113 21.6628C20.1932 22.57 19.0892 23.029 17.7995 23.029H15.0014C13.7117 23.029 12.6077 22.57 11.7005 21.6628C10.7933 20.7556 10.3343 19.6407 10.3343 18.351V15.5638H18.5537L20.6413 11.946L22.2699 12.875ZM19.7888 20.3402C20.3353 19.7828 20.6085 19.1489 20.6085 18.351V17.4219H12.2033V18.351C12.2033 19.1489 12.4656 19.7937 13.0121 20.3402C13.5696 20.8977 14.2144 21.16 15.0014 21.16H17.7995C18.5865 21.16 19.2423 20.8977 19.7888 20.3402Z" fill="currentColor"/>
</svg>