<svg fill="currentColor" viewBox="0 0 24 24" id="foodApple" height="1em" width="1em">
      <path d="M16.9922 7.99972C17.4922 8.74972 17.6094 9.7966 17.3438 11.1403C17.0782 12.4841 16.6329 13.8122 16.0079 15.1247C15.3829 16.4372 14.6797 17.5778 13.8985 18.5466C13.1329 19.5153 12.5 19.9997 12 19.9997C11 19.9997 10.375 19.8357 10.125 19.5075C9.87505 19.1638 9.50005 18.9919 9.00005 18.9919C8.50005 18.9919 8.12505 19.1638 7.87505 19.5075C7.62505 19.8357 7.00005 19.9997 6.00005 19.9997C5.50005 19.9997 4.85942 19.5153 4.07817 18.5466C3.31255 17.5778 2.61724 16.4372 1.99224 15.1247C1.36724 13.8122 0.921925 12.4841 0.6563 11.1403C0.390675 9.7966 0.507862 8.74972 1.00786 7.99972C1.50786 7.24972 2.05474 6.67941 2.64849 6.28878C3.25786 5.88253 3.87505 5.61691 4.50005 5.49191C5.12505 5.36691 5.73442 5.3591 6.32817 5.46847C6.93755 5.57785 7.49224 5.75753 7.99224 6.00753V3.00753C6.58599 3.77316 5.43755 4.14035 4.54692 4.1091C3.6563 4.07785 2.95317 3.89035 2.43755 3.5466C1.93755 3.20285 1.58599 2.82785 1.38286 2.4216C1.19536 1.99972 1.10161 1.78878 1.10161 1.78878C1.10161 1.78878 1.25786 1.62472 1.57036 1.2966C1.89849 0.968471 2.35942 0.734096 2.95317 0.593471C3.56255 0.437221 4.28911 0.499721 5.13286 0.780971C5.99224 1.06222 6.94536 1.80441 7.99224 3.00753V0.991908H10.0079V6.00753C10.5079 5.75753 11.0547 5.57785 11.6485 5.46847C12.2579 5.3591 12.875 5.36691 13.5 5.49191C14.125 5.61691 14.7344 5.88253 15.3282 6.28878C15.9375 6.67941 16.4922 7.24972 16.9922 7.99972Z" />
</svg>
