<svg fill="currentColor" viewBox="0 0 24 24" id="gnome" height="1em" width="1em">
      <path d="m 2.8594,0.0078125 c 1.0469,0 1.8829,0.3124995 2.5079,0.9374995 C 5.9766,1.55469 6.3907,2.23438 6.6094,2.98438 6.8126,3.71875 6.8204,4.39844 6.6329,5.02344 6.4298,5.63281 6.0391,5.9375 5.461,5.9375 4.8829,5.9375 4.2266,5.63281 3.4923,5.02344 2.7579,4.39844 2.1719,3.71875 1.7344,2.98438 1.2813,2.23438 1.1016,1.55469 1.1954,0.945312 1.2735,0.320312 1.8282,0.0078125 2.8594,0.0078125 Z M 9.28132,0.734375 c 0.04687,0 0.08593,0 0.11718,0 0.03125,0 0.0625,0 0.09375,0 0.59375,0.078125 1,0.351565 1.21875,0.820315 0.21875,0.46875 0.3125,0.96875 0.28125,1.5 C 10.94538,3.58594 10.81257,4.07031 10.59382,4.50781 10.35944,4.94531 10.086,5.17188 9.7735,5.1875 9.47663,5.20312 9.18757,4.98438 8.90632,4.53125 8.62507,4.0625 8.42975,3.54688 8.32038,2.98438 8.1954,2.42188 8.1954,1.90625 8.32038,1.4375 8.44538,0.96875 8.76569,0.734375 9.28132,0.734375 Z m 4.07812,1.617185 c 0.04688,0 0.10938,0.00782 0.1875,0.02344 0.0625,0 0.13281,0.01562 0.21094,0.04688 0.9375,0.39062 1.17969,1.14843 0.72656,2.27343 -0.46875,1.10938 -0.96875,1.60938 -1.5,1.5 -0.48437,-0.09375 -0.72656,-0.76562 -0.72656,-2.01562 0,-1.25 0.36719,-1.85938 1.10156,-1.82813 z m 3,2.50782 c 0.07813,-0.01563 0.16406,-0.00782 0.25781,0.02343 0.07813,0.03125 0.16407,0.07813 0.25782,0.14063 0.749996,0.53125 0.820308,1.24218 0.21093,2.13281 C 16.461,8.04688 15.92975,8.39062 15.49225,8.1875 15.10163,8.01562 15.00788,7.42188 15.211,6.40625 15.3985,5.39062 15.78132,4.875 16.35944,4.85938 Z M 7.9923,6.78125 c 0.79683,0 1.63277,0.10156 2.50777,0.30469 0.85937,0.20312 1.66406,0.50781 2.41406,0.91406 0.75,0.40625 1.40625,0.90625 1.96875,1.5 0.54687,0.5938 0.90625,1.2891 1.07812,2.0859 0.20313,0.875 0.125,1.8125 -0.23437,2.8125 -0.35938,0.9844 -0.89844,1.8907 -1.61719,2.7188 -0.71875,0.8281 -1.5625,1.5156 -2.53125,2.0625 C 10.59382,19.7266 9.57819,20 8.53132,20 8.0001,20 7.4688,19.8906 6.9376,19.6719 6.4063,19.4531 5.9141,19.1562 5.461,18.7812 5.0079,18.3906 4.6173,17.9375 4.2891,17.4219 3.961,16.9062 3.7423,16.3594 3.6329,15.7812 c -0.0938,-0.4531 0.0625,-0.7578 0.4687,-0.914 0.4063,-0.1563 0.8672,-0.211 1.3828,-0.1641 0.5157,0.0469 0.9844,0.1797 1.4063,0.3985 0.4219,0.2187 0.6172,0.4765 0.5859,0.7734 -0.0937,0.7188 0.1094,1.2188 0.6094,1.5 0.48438,0.2656 1.03125,0.1719 1.64063,-0.2812 0.96875,-0.7344 1.1875,-1.3985 0.65625,-1.9922 C 9.836,14.5078 9.07038,13.9062 8.086,13.2969 7.086,12.6719 6.1173,12 5.1798,11.2812 4.2423,10.5625 3.8594,9.69531 4.0313,8.67969 4.1407,8.03906 4.5704,7.5625 5.3204,7.25 6.0704,6.92188 6.961,6.76562 7.9923,6.78125 Z" />
</svg>
