<svg fill="currentColor" viewBox="0 0 24 24" id="googlePlus" height="1em" width="1em">
      <path d="M21.9922 6.00781H20V3.99219H18.0078V6.00781H15.9922V8H18.0078V9.99219H20V8H21.9922V6.00781ZM6.99219 6.00781V8.39844H11C10.9062 8.89844 10.5625 9.52344 9.96875 10.2734C9.39062 11.0234 8.39844 11.3984 6.99219 11.3984C5.80469 11.3984 4.78906 10.9688 3.94531 10.1094C3.11719 9.23438 2.70312 8.19531 2.70312 6.99219C2.70312 5.80469 3.11719 4.78125 3.94531 3.92188C4.78906 3.04688 5.80469 2.60938 6.99219 2.60938C7.69531 2.60938 8.27344 2.73438 8.72656 2.98438C9.19531 3.21875 9.55469 3.46094 9.80469 3.71094L11.7031 1.90625C11.0938 1.29688 10.3906 0.828125 9.59375 0.5C8.8125 0.171875 7.94531 0.0078125 6.99219 0.0078125C6.02344 0.0078125 5.10938 0.1875 4.25 0.546875C3.40625 0.90625 2.66406 1.40625 2.02344 2.04688C1.39844 2.67188 0.90625 3.41406 0.546875 4.27344C0.1875 5.11719 0.0078125 6.02344 0.0078125 6.99219C0.0078125 7.97656 0.1875 8.89844 0.546875 9.75781C0.90625 10.6016 1.39844 11.3359 2.02344 11.9609C2.66406 12.5859 3.40625 13.0859 4.25 13.4609C5.10938 13.8203 6.02344 14 6.99219 14C7.99219 14 8.90625 13.8359 9.73438 13.5078C10.5625 13.1641 11.2656 12.6953 11.8438 12.1016C12.4375 11.5078 12.8906 10.7969 13.2031 9.96875C13.5312 9.125 13.6953 8.20312 13.6953 7.20312C13.6953 6.95312 13.6875 6.74219 13.6719 6.57031C13.6719 6.38281 13.6484 6.19531 13.6016 6.00781H6.99219Z" />
</svg>
