<svg fill="currentColor" viewBox="0 0 24 24" id="household" height="1em" width="1em">
      <path d="M11 18.0078C12.0938 18.0078 13.125 17.7969 14.0938 17.375C15.0781 16.9531 15.9297 16.3828 16.6484 15.6641C17.3672 14.9297 17.9375 14.0781 18.3594 13.1094C18.7812 12.1406 18.9922 11.1016 18.9922 9.99219C18.9922 8.89844 18.7812 7.86719 18.3594 6.89844C17.9375 5.92969 17.3672 5.08594 16.6484 4.36719C15.9297 3.63281 15.0781 3.05469 14.0938 2.63281C13.125 2.21094 12.0938 2 11 2C9.90625 2 8.86719 2.21094 7.88281 2.63281C6.91406 3.05469 6.07031 3.63281 5.35156 4.36719C4.63281 5.08594 4.0625 5.92969 3.64062 6.89844C3.21875 7.86719 3.00781 8.89844 3.00781 9.99219C3.00781 11.1016 3.21875 12.1406 3.64062 13.1094C4.0625 14.0781 4.63281 14.9297 5.35156 15.6641C6.07031 16.3828 6.91406 16.9531 7.88281 17.375C8.86719 17.7969 9.90625 18.0078 11 18.0078ZM11 0.0078125C12.375 0.0078125 13.6641 0.273438 14.8672 0.804688C16.0859 1.32031 17.1484 2.03125 18.0547 2.9375C18.9609 3.84375 19.6797 4.90625 20.2109 6.125C20.7422 7.32812 21.0078 8.61719 21.0078 9.99219C21.0078 11.3672 20.7422 12.6641 20.2109 13.8828C19.6797 15.1016 18.9609 16.1641 18.0547 17.0703C17.1484 17.9766 16.0859 18.6953 14.8672 19.2266C13.6641 19.7422 12.375 20 11 20C9.625 20 8.32812 19.7422 7.10938 19.2266C5.90625 18.6953 4.85156 17.9766 3.94531 17.0703C3.03906 16.1641 2.32031 15.1016 1.78906 13.8828C1.25781 12.6641 0.992188 11.3672 0.992188 9.99219C0.992188 8.61719 1.25781 7.32812 1.78906 6.125C2.32031 4.90625 3.03906 3.84375 3.94531 2.9375C4.85156 2.03125 5.90625 1.32031 7.10938 0.804688C8.32812 0.273438 9.625 0.0078125 11 0.0078125ZM9.80469 14.7031H6.89844V9.99219H5.21094L11 4.78906L16.7891 10.1094H15.0078V14.7969H12.1016V11.3047H9.71094V14.7031H9.80469Z" />
</svg>
