<svg fill="currentColor" viewBox="0 0 24 24" id="instagram" height="1em" width="1em">
      <path d="M18.9922 4.50781C18.9922 4.64844 18.9453 4.76562 18.8516 4.85938C18.7734 4.95312 18.6562 5 18.5 5H16.5078C16.3516 5 16.2266 4.95312 16.1328 4.85938C16.0391 4.76562 15.9922 4.64844 15.9922 4.50781V2.49219C15.9922 2.35156 16.0391 2.23438 16.1328 2.14062C16.2266 2.04688 16.3516 2 16.5078 2H18.5C18.6562 2 18.7734 2.04688 18.8516 2.14062C18.9453 2.23438 18.9922 2.35156 18.9922 2.49219V4.50781ZM3.5 18.0078C3.34375 18.0078 3.21875 17.9609 3.125 17.8672C3.04688 17.7734 3.00781 17.6484 3.00781 17.4922V9.00781H5.09375C5.04688 9.14844 5.01562 9.3125 5 9.5C5 9.6875 5 9.85156 5 9.99219C5 10.8203 5.15625 11.6016 5.46875 12.3359C5.78125 13.0547 6.21094 13.6875 6.75781 14.2344C7.30469 14.7812 7.9375 15.2109 8.65625 15.5234C9.39062 15.8359 10.1719 15.9922 11 15.9922C11.8281 15.9922 12.6016 15.8359 13.3203 15.5234C14.0547 15.2109 14.6953 14.7812 15.2422 14.2344C15.7891 13.6875 16.2188 13.0547 16.5312 12.3359C16.8438 11.6016 17 10.8203 17 9.99219C17 9.85156 16.9922 9.6875 16.9766 9.5C16.9766 9.3125 16.9531 9.14844 16.9062 9.00781H18.9922V17.4922C18.9922 17.6484 18.9453 17.7734 18.8516 17.8672C18.7734 17.9609 18.6562 18.0078 18.5 18.0078H3.5ZM11 6.00781C12.0938 6.00781 13.0312 6.39844 13.8125 7.17969C14.6094 7.96094 15.0078 8.89844 15.0078 9.99219C15.0078 11.1016 14.6094 12.0469 13.8125 12.8281C13.0312 13.6094 12.0938 14 11 14C9.90625 14 8.96094 13.6094 8.16406 12.8281C7.38281 12.0469 6.99219 11.1016 6.99219 9.99219C6.99219 8.89844 7.38281 7.96094 8.16406 7.17969C8.96094 6.39844 9.90625 6.00781 11 6.00781ZM18.9922 0.0078125H3.00781C2.44531 0.0078125 1.96875 0.203125 1.57812 0.59375C1.1875 0.984375 0.992188 1.45312 0.992188 2V18.0078C0.992188 18.5547 1.1875 19.0234 1.57812 19.4141C1.96875 19.8047 2.44531 20 3.00781 20H18.9922C19.5547 20 20.0312 19.8047 20.4219 19.4141C20.8125 19.0234 21.0078 18.5547 21.0078 18.0078V2C21.0078 1.45312 20.8125 0.984375 20.4219 0.59375C20.0312 0.203125 19.5547 0.0078125 18.9922 0.0078125Z" />
</svg>
