<svg fill="currentColor" viewBox="0 0 24 24" id="keyVariant" height="1em" width="1em">
      <path d="M21.0078 15.9922V20H17V17H14V14H11L8.75 11.75C8.46875 11.8281 8.17969 11.8906 7.88281 11.9375C7.60156 11.9844 7.30469 12.0078 6.99219 12.0078C6.16406 12.0078 5.38281 11.8516 4.64844 11.5391C3.92969 11.2109 3.29688 10.7812 2.75 10.25C2.21875 9.70312 1.78906 9.07031 1.46094 8.35156C1.14844 7.61719 0.992188 6.83594 0.992188 6.00781C0.992188 5.17969 1.14844 4.39844 1.46094 3.66406C1.78906 2.92969 2.21875 2.29688 2.75 1.76562C3.29688 1.21875 3.92969 0.789062 4.64844 0.476562C5.38281 0.164062 6.16406 0.0078125 6.99219 0.0078125C7.82031 0.0078125 8.60156 0.164062 9.33594 0.476562C10.0703 0.789062 10.7031 1.21875 11.2344 1.76562C11.7812 2.29688 12.2109 2.92969 12.5234 3.66406C12.8359 4.39844 12.9922 5.17969 12.9922 6.00781C12.9922 6.30469 12.9688 6.60156 12.9219 6.89844C12.8906 7.17969 12.8281 7.46094 12.7344 7.74219L21.0078 15.9922ZM6.00781 3.00781C5.44531 3.00781 4.96875 3.20312 4.57812 3.59375C4.1875 3.98438 3.99219 4.45312 3.99219 5C3.99219 5.54688 4.1875 6.01562 4.57812 6.40625C4.96875 6.79688 5.44531 6.99219 6.00781 6.99219C6.55469 6.99219 7.02344 6.79688 7.41406 6.40625C7.80469 6.01562 8 5.54688 8 5C8 4.45312 7.80469 3.98438 7.41406 3.59375C7.02344 3.20312 6.55469 3.00781 6.00781 3.00781Z" />
</svg>
