<svg fill="currentColor" viewBox="0 0 24 24" id="leaf" height="1em" width="1em">
      <path d="M15.9922 6.00781C13.7422 6.50781 11.8906 7.24219 10.4375 8.21094C8.98438 9.16406 7.77344 10.2578 6.80469 11.4922C5.85156 12.7109 5.07812 14 4.48438 15.3594C3.89062 16.7188 3.33594 18.0469 2.82031 19.3438L4.71875 20L5.65625 17.7031C5.90625 17.7812 6.14844 17.8516 6.38281 17.9141C6.61719 17.9766 6.82031 18.0078 6.99219 18.0078C9.74219 18.0078 12.0156 17.125 13.8125 15.3594C15.625 13.5781 17.0625 11.625 18.125 9.5C19.1875 7.375 19.9297 5.42969 20.3516 3.66406C20.7891 1.88281 21.0078 0.992188 21.0078 0.992188C20.7578 1.49219 20.1719 1.89844 19.25 2.21094C18.3281 2.52344 17.2422 2.78906 15.9922 3.00781C14.7422 3.22656 13.4062 3.42969 11.9844 3.61719C10.5781 3.78906 9.25 4 8 4.25C6.75 4.5 5.67969 4.92969 4.78906 5.53906C3.91406 6.13281 3.19531 6.78906 2.63281 7.50781C2.07031 8.22656 1.65625 8.94531 1.39062 9.66406C1.125 10.3828 0.992188 10.9922 0.992188 11.4922C0.992188 12.4922 1.28125 13.3672 1.85938 14.1172C2.45312 14.8672 2.75 15.2422 2.75 15.2422C3.5625 12.9297 4.71094 11.1484 6.19531 9.89844C7.67969 8.64844 9.14844 7.73438 10.6016 7.15625C12.0547 6.57812 13.3125 6.24219 14.375 6.14844C15.4531 6.05469 15.9922 6.00781 15.9922 6.00781Z" />
</svg>
