<svg fill="currentColor" viewBox="0 0 24 24" id="linkChecked" height="1em" width="1em">
      <path d="M6.99219 5.00781H15.0078V7H6.99219V5.00781ZM19.1094 5.99219C19.1094 6.85156 18.8047 7.58594 18.1953 8.19531C17.5859 8.80469 16.8516 9.10938 15.9922 9.10938H12.0078V11.0078H12.1016L13.9062 9.20312L15.7109 11.0078H15.9922C16.1484 11.0078 16.2812 11.0078 16.3906 11.0078C16.5 10.9922 16.6016 10.9531 16.6953 10.8906L20.8906 6.69531C20.8906 6.55469 20.9062 6.42969 20.9375 6.32031C20.9844 6.19531 21.0078 6.05469 21.0078 5.89844C21.0078 5.19531 20.875 4.53906 20.6094 3.92969C20.3594 3.32031 20.0078 2.79688 19.5547 2.35938C19.1016 1.90625 18.5703 1.55469 17.9609 1.30469C17.3516 1.03906 16.6953 0.90625 15.9922 0.90625H12.0078V2.80469H15.9922C16.8516 2.85156 17.5859 3.1875 18.1953 3.8125C18.8047 4.42188 19.1094 5.14844 19.1094 5.99219ZM2.89062 5.99219C2.89062 5.14844 3.19531 4.42188 3.80469 3.8125C4.41406 3.20312 5.14844 2.89844 6.00781 2.89844H9.99219V1H6.00781C5.30469 1 4.64844 1.13281 4.03906 1.39844C3.42969 1.66406 2.89844 2.03125 2.44531 2.5C1.99219 2.95312 1.63281 3.48438 1.36719 4.09375C1.11719 4.6875 0.992188 5.32031 0.992188 5.99219C0.992188 6.67969 1.11719 7.32812 1.36719 7.9375C1.63281 8.53125 1.99219 9.05469 2.44531 9.50781C2.89844 9.96094 3.42969 10.3281 4.03906 10.6094C4.64844 10.875 5.30469 11.0078 6.00781 11.0078H9.99219V9.10938H6.00781C5.14844 9.10938 4.41406 8.80469 3.80469 8.19531C3.19531 7.58594 2.89062 6.85156 2.89062 5.99219ZM16.2031 16.6094L12.2891 12.2969L14 10.6094L16.2969 12.9062L21.4062 7.79688L23.0938 9.78906L16.2031 16.6094Z" />
</svg>
