<svg fill="currentColor" viewBox="0 0 24 24" id="motorbike" height="1em" width="1em">
      <path d="M16.3594 5.28125H18.5391V3.125H16.3594V2.07031H18.2109C18.0547 1.75781 17.8047 1.5 17.4609 1.29688C17.1172 1.09375 16.75 0.992188 16.3594 0.992188C15.7656 0.992188 15.25 1.20312 14.8125 1.625C14.3906 2.04688 14.1797 2.54688 14.1797 3.125C14.1797 3.71875 14.3906 4.22656 14.8125 4.64844C15.25 5.07031 15.7656 5.28125 16.3594 5.28125ZM10.0312 10.3906L13.0078 7.92969L17.4609 10.6016H10.2422L10.0312 10.3906ZM19.5234 13.0391L21.0469 11.5625C21.4844 11.1406 21.7031 10.6484 21.7031 10.0859C21.7031 9.50781 21.4844 9 21.0469 8.5625L19.1953 10.3906L13.9688 5.28125C13.7969 5 13.5625 4.78906 13.2656 4.64844C12.9844 4.49219 12.6719 4.41406 12.3281 4.41406C12.0469 4.41406 11.7969 4.46875 11.5781 4.57812C11.375 4.67188 11.1797 4.79688 10.9922 4.95312L7.00781 8.89062C6.82031 9.04688 6.67969 9.23438 6.58594 9.45312C6.49219 9.67188 6.44531 9.91406 6.44531 10.1797V10.7188H5.13281C4.58594 10.7188 4.11719 10.9297 3.72656 11.3516C3.35156 11.7578 3.16406 12.2578 3.16406 12.8516V13.2734C3.33594 13.2109 3.51562 13.1797 3.70312 13.1797C3.90625 13.1641 4.08594 13.1562 4.24219 13.1562C4.96094 13.1562 5.63281 13.2891 6.25781 13.5547C6.89844 13.8203 7.45312 14.1875 7.92188 14.6562C8.40625 15.1094 8.78906 15.6484 9.07031 16.2734C9.35156 16.8984 9.49219 17.5703 9.49219 18.2891C9.49219 18.4453 9.48438 18.625 9.46875 18.8281C9.46875 19.0156 9.4375 19.1875 9.375 19.3438H14.5078C14.4453 19.1875 14.4062 19.0156 14.3906 18.8281C14.3906 18.625 14.3906 18.4453 14.3906 18.2891C14.3906 17.5391 14.5234 16.8438 14.7891 16.2031C15.0703 15.5625 15.4375 15.0078 15.8906 14.5391C16.3594 14.0703 16.9062 13.7031 17.5312 13.4375C18.1562 13.1719 18.8203 13.0391 19.5234 13.0391ZM4.35938 20.7266C3.59375 20.7266 2.94531 20.4688 2.41406 19.9531C1.89844 19.4375 1.64062 18.8125 1.64062 18.0781C1.64062 17.3281 1.89844 16.6953 2.41406 16.1797C2.94531 15.6641 3.59375 15.4062 4.35938 15.4062C5.125 15.4062 5.77344 15.6641 6.30469 16.1797C6.83594 16.6953 7.10156 17.3281 7.10156 18.0781C7.10156 18.8125 6.83594 19.4375 6.30469 19.9531C5.77344 20.4688 5.125 20.7266 4.35938 20.7266ZM4.35938 13.7891C3.15625 13.7891 2.125 14.2109 1.26562 15.0547C0.421875 15.8828 0 16.8906 0 18.0781C0 19.25 0.421875 20.25 1.26562 21.0781C2.125 21.9062 3.15625 22.3203 4.35938 22.3203C5.5625 22.3203 6.58594 21.9062 7.42969 21.0781C8.28906 20.25 8.71875 19.25 8.71875 18.0781C8.71875 16.8906 8.28906 15.8828 7.42969 15.0547C6.58594 14.2109 5.5625 13.7891 4.35938 13.7891ZM19.6406 20.7266C18.875 20.7266 18.2266 20.4688 17.6953 19.9531C17.1641 19.4375 16.8984 18.8125 16.8984 18.0781C16.8984 17.3281 17.1641 16.6953 17.6953 16.1797C18.2266 15.6641 18.875 15.4062 19.6406 15.4062C20.4062 15.4062 21.0469 15.6641 21.5625 16.1797C22.0938 16.6953 22.3594 17.3281 22.3594 18.0781C22.3594 18.8125 22.0938 19.4375 21.5625 19.9531C21.0469 20.4688 20.4062 20.7266 19.6406 20.7266ZM19.6406 13.7891C18.4375 13.7891 17.4062 14.2109 16.5469 15.0547C15.7031 15.8828 15.2812 16.8906 15.2812 18.0781C15.2812 19.25 15.7031 20.25 16.5469 21.0781C17.4062 21.9062 18.4375 22.3203 19.6406 22.3203C20.8438 22.3203 21.8672 21.9062 22.7109 21.0781C23.5703 20.25 24 19.25 24 18.0781C24 16.8906 23.5703 15.8828 22.7109 15.0547C21.8672 14.2109 20.8438 13.7891 19.6406 13.7891Z" />
</svg>
