<svg fill="currentColor" viewBox="0 0 24 24" id="photoCameraChecked" height="1em" width="1em">
      <path d="M12.5078 19.5312L15.0859 16.9297L17.5938 19.4375L22.4453 14.5859L22.8672 14.1172V5.35156C22.8672 4.75781 22.6562 4.25 22.2344 3.82812C21.8125 3.39062 21.2969 3.17188 20.6875 3.17188H17.2188L15.2031 0.96875H8.64062L6.64844 3.17188H3.15625C2.5625 3.17188 2.04688 3.39062 1.60938 3.82812C1.1875 4.25 0.976562 4.75781 0.976562 5.35156V18.5C0.976562 19.1094 1.1875 19.625 1.60938 20.0469C2.04688 20.4688 2.5625 20.6797 3.15625 20.6797H11.3359L12.5078 19.5312ZM11.9219 6.45312C12.6875 6.45312 13.3984 6.60156 14.0547 6.89844C14.7266 7.17969 15.3047 7.57031 15.7891 8.07031C16.2891 8.55469 16.6797 9.13281 16.9609 9.80469C17.2578 10.4609 17.4062 11.1719 17.4062 11.9375C17.4062 12.6875 17.2578 13.3984 16.9609 14.0703C16.6797 14.7266 16.2891 15.3047 15.7891 15.8047C15.3047 16.2891 14.7266 16.6797 14.0547 16.9766C13.3984 17.2578 12.6875 17.3984 11.9219 17.3984C11.1719 17.3984 10.4609 17.2578 9.78906 16.9766C9.13281 16.6797 8.55469 16.2891 8.05469 15.8047C7.55469 15.3047 7.16406 14.7266 6.88281 14.0703C6.60156 13.3984 6.46094 12.6875 6.46094 11.9375C6.46094 11.1719 6.60156 10.4609 6.88281 9.80469C7.16406 9.13281 7.55469 8.55469 8.05469 8.07031C8.55469 7.57031 9.13281 7.17969 9.78906 6.89844C10.4609 6.60156 11.1719 6.45312 11.9219 6.45312ZM11.9219 15.4297C12.8906 15.4297 13.7109 15.0859 14.3828 14.3984C15.0703 13.7109 15.4141 12.8906 15.4141 11.9375C15.4141 10.9688 15.0703 10.1484 14.3828 9.47656C13.7109 8.78906 12.8906 8.44531 11.9219 8.44531C10.9531 8.44531 10.125 8.78906 9.4375 9.47656C8.76562 10.1484 8.42969 10.9688 8.42969 11.9375C8.42969 11.9375 8.42969 11.9453 8.42969 11.9609C8.42969 12.9141 8.76562 13.7344 9.4375 14.4219C10.125 15.0938 10.9453 15.4297 11.8984 15.4297C11.9141 15.4297 11.9219 15.4297 11.9219 15.4297ZM17.5703 24.9922L13.2812 20.3047L15.0859 18.5L17.5703 20.9844L23.1953 15.3594L25 17.5625L17.5703 24.9922Z" />
</svg>
