<svg fill="currentColor" viewBox="0 0 24 24" id="pig" height="1em" width="1em">
      <path d="M7.49234 6.99284C7.08609 6.99284 6.73453 7.14128 6.43765 7.43815C6.14078 7.73503 5.99234 8.08659 5.99234 8.49284C5.99234 8.91471 6.14078 9.27409 6.43765 9.57096C6.73453 9.85221 7.08609 9.99284 7.49234 9.99284C7.91422 9.99284 8.26578 9.85221 8.54703 9.57096C8.8439 9.27409 8.99234 8.91471 8.99234 8.49284C8.99234 8.08659 8.8439 7.73503 8.54703 7.43815C8.26578 7.14128 7.91422 6.99284 7.49234 6.99284ZM12.508 6.99284C12.0861 6.99284 11.7267 7.14128 11.4298 7.43815C11.1486 7.73503 11.008 8.08659 11.008 8.49284C11.008 8.91471 11.1486 9.27409 11.4298 9.57096C11.7267 9.85221 12.0861 9.99284 12.508 9.99284C12.9142 9.99284 13.2658 9.85221 13.5627 9.57096C13.8595 9.27409 14.008 8.91471 14.008 8.49284C14.008 8.08659 13.8595 7.73503 13.5627 7.43815C13.2658 7.14128 12.9142 6.99284 12.508 6.99284ZM10.0002 2.00065L10.6798 2.02409C11.1486 1.63346 11.6564 1.28971 12.2033 0.992839C12.7658 0.680339 13.2736 0.469401 13.7267 0.360026C14.1955 0.235026 14.7267 0.164714 15.3205 0.149089C15.9142 0.133464 16.4923 0.188151 17.0548 0.313151C17.6173 0.422526 18.1017 0.602214 18.508 0.852214C18.9298 1.10221 19.1955 1.43034 19.3048 1.83659C19.4611 2.41471 19.3127 3.0319 18.8595 3.68815C18.422 4.3444 17.8127 4.9069 17.0314 5.37565C17.6408 6.14128 18.1173 7.00846 18.4611 7.97721C18.8205 8.93034 19.0002 9.93815 19.0002 11.0007C19.0002 12.2507 18.7658 13.4225 18.297 14.5163C17.8283 15.5944 17.1798 16.5475 16.3517 17.3757C15.5392 18.1882 14.5861 18.8288 13.4923 19.2975C12.4142 19.7663 11.2502 20.0007 10.0002 20.0007C8.75015 20.0007 7.57828 19.7663 6.48453 19.2975C5.4064 18.8288 4.45328 18.1882 3.62515 17.3757C2.81265 16.5475 2.17203 15.5944 1.70328 14.5163C1.23453 13.4225 1.00015 12.2507 1.00015 11.0007C1.00015 9.93815 1.17203 8.93034 1.51578 7.97721C1.87515 7.00846 2.35953 6.14128 2.9689 5.37565C2.18765 4.9069 1.57047 4.3444 1.11734 3.68815C0.679842 3.0319 0.539217 2.41471 0.695467 1.83659C0.804842 1.43034 1.06265 1.10221 1.4689 0.852214C1.89078 0.602214 2.38297 0.422526 2.94547 0.313151C3.50797 0.188151 4.08609 0.133464 4.67984 0.149089C5.27359 0.164714 5.80484 0.235026 6.27359 0.360026C6.72672 0.469401 7.22672 0.680339 7.77359 0.992839C8.33609 1.28971 8.85172 1.63346 9.32047 2.02409L10.0002 2.00065ZM8.00797 14.0007C8.27359 14.0007 8.50015 14.1022 8.68765 14.3053C8.89078 14.4928 8.99234 14.7272 8.99234 15.0085C8.99234 15.2741 8.89078 15.5085 8.68765 15.7116C8.50015 15.8991 8.27359 15.9928 8.00797 15.9928C7.72672 15.9928 7.48453 15.8991 7.2814 15.7116C7.0939 15.5085 7.00015 15.2741 7.00015 15.0085C7.00015 14.7272 7.0939 14.4928 7.2814 14.3053C7.48453 14.1022 7.72672 14.0007 8.00797 14.0007ZM11.9923 14.0007C12.2736 14.0007 12.508 14.1022 12.6955 14.3053C12.8986 14.4928 13.0002 14.7272 13.0002 15.0085C13.0002 15.2741 12.8986 15.5085 12.6955 15.7116C12.508 15.8991 12.2736 15.9928 11.9923 15.9928C11.7267 15.9928 11.4923 15.8991 11.2892 15.7116C11.1017 15.5085 11.008 15.2741 11.008 15.0085C11.008 14.7272 11.1017 14.4928 11.2892 14.3053C11.4923 14.1022 11.7267 14.0007 11.9923 14.0007ZM10.0002 11.0007C9.31265 11.0007 8.66422 11.1335 8.05484 11.3991C7.44547 11.6491 6.91422 11.9772 6.46109 12.3835C6.00797 12.7741 5.64859 13.2038 5.38297 13.6725C5.13297 14.1413 5.00797 14.5866 5.00797 15.0085C5.00797 15.8366 5.49234 16.5475 6.46109 17.1413C7.44547 17.7194 8.62515 18.0085 10.0002 18.0085C11.3752 18.0085 12.547 17.7194 13.5158 17.1413C14.5002 16.5475 14.9923 15.8366 14.9923 15.0085C14.9923 14.5866 14.8595 14.1413 14.5939 13.6725C14.3439 13.2038 13.9923 12.7741 13.5392 12.3835C13.0861 11.9772 12.5548 11.6491 11.9455 11.3991C11.3361 11.1335 10.6877 11.0007 10.0002 11.0007ZM5.75797 2.2819C5.53922 2.2194 4.95328 2.2194 4.00015 2.2819C3.06265 2.32878 2.5939 2.35221 2.5939 2.35221C2.5939 2.35221 2.97672 2.64909 3.74234 3.24284C4.52359 3.83659 5.02359 4.16471 5.24234 4.22721C5.46109 4.28971 5.93765 4.32096 6.67203 4.32096C7.42203 4.30534 7.83609 4.16471 7.91422 3.89909C7.99234 3.63346 7.70328 3.31315 7.04703 2.93815C6.4064 2.56315 5.97672 2.3444 5.75797 2.2819ZM14.2423 2.2819C14.0236 2.3444 13.5861 2.56315 12.9298 2.93815C12.2892 3.31315 12.008 3.63346 12.0861 3.89909C12.1642 4.16471 12.5705 4.30534 13.3048 4.32096C14.0548 4.32096 14.5392 4.28971 14.758 4.22721C14.9767 4.16471 15.4689 3.83659 16.2345 3.24284C17.0158 2.64909 17.4064 2.35221 17.4064 2.35221C17.4064 2.35221 16.9298 2.32878 15.9767 2.2819C15.0392 2.2194 14.4611 2.2194 14.2423 2.2819Z" />
</svg>
