<svg fill="currentColor" viewBox="0 0 24 24" id="team" height="1em" width="1em">
      <path d="M11 18.0078C12.0938 18.0078 13.125 17.7969 14.0938 17.375C15.0781 16.9531 15.9297 16.3828 16.6484 15.6641C17.3672 14.9297 17.9375 14.0781 18.3594 13.1094C18.7812 12.1406 18.9922 11.1016 18.9922 9.99219C18.9922 8.89844 18.7812 7.86719 18.3594 6.89844C17.9375 5.92969 17.3672 5.08594 16.6484 4.36719C15.9297 3.63281 15.0781 3.05469 14.0938 2.63281C13.125 2.21094 12.0938 2 11 2C9.90625 2 8.86719 2.21094 7.88281 2.63281C6.91406 3.05469 6.07031 3.63281 5.35156 4.36719C4.63281 5.08594 4.0625 5.92969 3.64062 6.89844C3.21875 7.86719 3.00781 8.89844 3.00781 9.99219C3.00781 11.1016 3.21875 12.1406 3.64062 13.1094C4.0625 14.0781 4.63281 14.9297 5.35156 15.6641C6.07031 16.3828 6.91406 16.9531 7.88281 17.375C8.86719 17.7969 9.90625 18.0078 11 18.0078ZM11 0.0078125C12.375 0.0078125 13.6641 0.273438 14.8672 0.804688C16.0859 1.32031 17.1484 2.03125 18.0547 2.9375C18.9609 3.84375 19.6797 4.90625 20.2109 6.125C20.7422 7.32812 21.0078 8.61719 21.0078 9.99219C21.0078 11.3672 20.7422 12.6641 20.2109 13.8828C19.6797 15.1016 18.9609 16.1641 18.0547 17.0703C17.1484 17.9766 16.0859 18.6953 14.8672 19.2266C13.6641 19.7422 12.375 20 11 20C9.625 20 8.32812 19.7422 7.10938 19.2266C5.90625 18.6953 4.85156 17.9766 3.94531 17.0703C3.03906 16.1641 2.32031 15.1016 1.78906 13.8828C1.25781 12.6641 0.992188 11.3672 0.992188 9.99219C0.992188 8.61719 1.25781 7.32812 1.78906 6.125C2.32031 4.90625 3.03906 3.84375 3.94531 2.9375C4.85156 2.03125 5.90625 1.32031 7.10938 0.804688C8.32812 0.273438 9.625 0.0078125 11 0.0078125ZM12.9922 10.3906C13.6016 10.3906 14.3516 10.5469 15.2422 10.8594C16.1484 11.1562 16.6016 11.6016 16.6016 12.1953V13.5078H13.5078V12.1953C13.5078 11.8047 13.4141 11.4688 13.2266 11.1875C13.0391 10.9062 12.7969 10.6406 12.5 10.3906C12.5938 10.3906 12.6875 10.3906 12.7812 10.3906C12.875 10.3906 12.9453 10.3906 12.9922 10.3906ZM9.00781 10.3906C9.60156 10.3906 10.3438 10.5469 11.2344 10.8594C12.1406 11.1562 12.5938 11.6016 12.5938 12.1953V13.5078H5.39844V12.1953C5.39844 11.6016 5.84375 11.1562 6.73438 10.8594C7.64062 10.5469 8.39844 10.3906 9.00781 10.3906ZM9.00781 9.40625C8.60156 9.40625 8.25 9.25781 7.95312 8.96094C7.65625 8.64844 7.50781 8.29688 7.50781 7.90625C7.44531 7.45312 7.5625 7.07031 7.85938 6.75781C8.17188 6.44531 8.55469 6.28906 9.00781 6.28906C9.39844 6.28906 9.74219 6.44531 10.0391 6.75781C10.3516 7.05469 10.5078 7.39844 10.5078 7.78906C10.5078 8.24219 10.3516 8.625 10.0391 8.9375C9.74219 9.25 9.39844 9.40625 9.00781 9.40625ZM12.9922 9.40625C12.6016 9.40625 12.25 9.25781 11.9375 8.96094C11.6406 8.64844 11.4922 8.29688 11.4922 7.90625C11.4922 7.5 11.6406 7.14844 11.9375 6.85156C12.25 6.55469 12.6016 6.40625 12.9922 6.40625C13.3984 6.40625 13.75 6.55469 14.0469 6.85156C14.3438 7.14844 14.4922 7.5 14.4922 7.90625C14.5547 8.29688 14.4297 8.64844 14.1172 8.96094C13.8203 9.25781 13.4453 9.40625 12.9922 9.40625Z" />
</svg>
