<svg fill="currentColor" viewBox="0 0 24 24" id="tungsten" height="1em" width="1em"><path d="M11 19h2v3h-2zm-9-8h3v2H2zm17 0h3v2h-3z"/><path d="M16.66 16.66h1.99v3h-1.99z" transform="rotate(-45 17.6548 18.1553)"/><path d="M4.85 17.16h3v1.99h-3z" transform="rotate(-45 6.3449 18.1552)"/><path d="M15 8.02V3H9v5.02c-1.21.92-2 2.35-2 3.98 0 2.76 2.24 5 5 5s5-2.24 5-5c0-1.63-.79-3.06-2-3.98zM11 5h2v2.1c-.32-.06-.66-.1-1-.1s-.68.04-1 .1V5zm1 10c-1.65 0-3-1.35-3-3s1.35-3 3-3 3 1.35 3 3-1.35 3-3 3z"/></svg>