<svg fill="currentColor" viewBox="0 0 24 24" id="twitter" height="1em" width="1em">
      <path d="M21.5 1.99219C21.0938 2.14844 20.6875 2.29688 20.2812 2.4375C19.875 2.5625 19.4453 2.64844 18.9922 2.69531C19.4453 2.44531 19.8359 2.10938 20.1641 1.6875C20.5078 1.26562 20.75 0.804688 20.8906 0.304688C20.5 0.554688 20.0625 0.765625 19.5781 0.9375C19.1094 1.09375 18.6484 1.25 18.1953 1.40625C17.8047 0.953125 17.3359 0.609375 16.7891 0.375C16.2422 0.125 15.6484 0 15.0078 0C13.8047 0 12.7812 0.421875 11.9375 1.26562C11.1094 2.09375 10.6953 3.10156 10.6953 4.28906C10.6953 4.44531 10.6953 4.61719 10.6953 4.80469C10.7109 4.99219 10.7422 5.15625 10.7891 5.29688C9.91406 5.25 9.0625 5.10938 8.23438 4.875C7.40625 4.64062 6.61719 4.33594 5.86719 3.96094C5.11719 3.57031 4.41406 3.10938 3.75781 2.57812C3.11719 2.04688 2.53125 1.45312 2 0.796875C1.79688 1.09375 1.64062 1.42969 1.53125 1.80469C1.4375 2.17969 1.39062 2.54688 1.39062 2.90625C1.39062 3.65625 1.57031 4.34375 1.92969 4.96875C2.28906 5.59375 2.74219 6.10156 3.28906 6.49219C2.94531 6.49219 2.60156 6.45312 2.25781 6.375C1.92969 6.28125 1.64062 6.15625 1.39062 6C1.39062 7.04688 1.71875 7.96094 2.375 8.74219C3.04688 9.50781 3.85156 9.99219 4.78906 10.1953C4.60156 10.2422 4.42188 10.2891 4.25 10.3359C4.07812 10.3828 3.89844 10.4062 3.71094 10.4062C3.55469 10.4062 3.41406 10.4062 3.28906 10.4062C3.17969 10.3906 3.04688 10.3516 2.89062 10.2891C3.14062 11.1484 3.63281 11.8516 4.36719 12.3984C5.10156 12.9453 5.94531 13.2422 6.89844 13.2891C6.14844 13.8984 5.32812 14.3516 4.4375 14.6484C3.54688 14.9453 2.60156 15.0938 1.60156 15.0938C1.44531 15.0938 1.27344 15.0938 1.08594 15.0938C0.914062 15.0781 0.75 15.0469 0.59375 15C1.5 15.6562 2.50781 16.1562 3.61719 16.5C4.74219 16.8281 5.90625 16.9922 7.10938 16.9922C9.07812 16.9922 10.8203 16.625 12.3359 15.8906C13.8516 15.1562 15.125 14.2031 16.1562 13.0312C17.1875 11.8594 17.9688 10.5547 18.5 9.11719C19.0312 7.66406 19.2969 6.22656 19.2969 4.80469C19.2969 4.69531 19.2969 4.59375 19.2969 4.5C19.2969 4.40625 19.2969 4.30469 19.2969 4.19531C19.75 3.89844 20.1562 3.57031 20.5156 3.21094C20.875 2.85156 21.2031 2.44531 21.5 1.99219Z" />
</svg>
