<svg fill="currentColor" viewBox="0 0 24 24" id="waterPump" height="1em" width="1em">
      <path d="M18.0078 12.5C18.0078 12.5 18.3359 12.9219 18.9922 13.7656C19.6641 14.5938 20 15.3359 20 15.9922C20 16.5547 19.8047 17.0312 19.4141 17.4219C19.0234 17.8125 18.5547 18.0078 18.0078 18.0078C17.4453 18.0078 16.9688 17.8125 16.5781 17.4219C16.1875 17.0312 15.9922 16.5547 15.9922 15.9922C15.9922 15.3359 16.3281 14.5938 17 13.7656C17.6719 12.9219 18.0078 12.5 18.0078 12.5ZM3.99219 15.9922V6.99219C3.44531 6.99219 2.97656 6.79688 2.58594 6.40625C2.19531 6.01562 2 5.54688 2 5C2 4.45312 2.19531 3.98438 2.58594 3.59375C2.97656 3.20312 3.44531 3.00781 3.99219 3.00781V2C3.99219 1.45312 4.1875 0.984375 4.57812 0.59375C4.96875 0.203125 5.44531 0.0078125 6.00781 0.0078125H8C8.54688 0.0078125 9.01562 0.203125 9.40625 0.59375C9.79688 0.984375 9.99219 1.45312 9.99219 2V3.00781H18.0078C18.5547 3.00781 19.0234 3.20312 19.4141 3.59375C19.8047 3.98438 20 4.45312 20 5V9.00781C20.2812 9.00781 20.5156 9.10938 20.7031 9.3125C20.9062 9.5 21.0078 9.72656 21.0078 9.99219C21.0078 10.2734 20.9062 10.5156 20.7031 10.7188C20.5156 10.9062 20.2812 11 20 11H15.9922C15.7266 11 15.4922 10.9062 15.2891 10.7188C15.1016 10.5156 15.0078 10.2734 15.0078 9.99219C15.0078 9.72656 15.1016 9.5 15.2891 9.3125C15.4922 9.10938 15.7266 9.00781 15.9922 9.00781V6.99219H9.99219V15.9922H11C11.5469 15.9922 12.0156 16.1875 12.4062 16.5781C12.7969 16.9688 12.9922 17.4453 12.9922 18.0078V20H0.992188V18.0078C0.992188 17.4453 1.1875 16.9688 1.57812 16.5781C1.96875 16.1875 2.44531 15.9922 3.00781 15.9922H3.99219Z" />
</svg>
