<svg fill="currentColor" viewBox="0 0 24 24" id="waterOff" height="1em" width="1em">
      <path d="M13.1094 14.125L1.27344 2.26562L0.0078125 3.55469L3.3125 6.85938C2.9375 7.59375 2.625 8.32031 2.375 9.03906C2.125 9.74219 2 10.3984 2 11.0078C2 11.8359 2.15625 12.6172 2.46875 13.3516C2.78125 14.0703 3.21094 14.7031 3.75781 15.25C4.30469 15.7812 4.9375 16.2109 5.65625 16.5391C6.39062 16.8516 7.17188 17.0078 8 17.0078C8.75 17.0078 9.46094 16.875 10.1328 16.6094C10.8203 16.3281 11.4297 15.9609 11.9609 15.5078L14.5859 18.1328L15.8516 16.8672L13.1094 14.125ZM14 11.0078C14 10.0078 13.6875 8.88281 13.0625 7.63281C12.4375 6.38281 11.75 5.21094 11 4.11719C10.25 3.00781 9.5625 2.07812 8.9375 1.32812C8.3125 0.578125 8 0.203125 8 0.203125C8 0.203125 7.71875 0.539062 7.15625 1.21094C6.59375 1.88281 5.96875 2.71875 5.28125 3.71875L13.8594 12.3203C13.9062 12.1016 13.9375 11.8828 13.9531 11.6641C13.9844 11.4453 14 11.2266 14 11.0078Z" />
</svg>
