<svg fill="currentColor" viewBox="0 0 24 24" id="wunderlist" height="1em" width="1em">
      <path d="M13.9922 15.5L9 12.9922L4.00781 15.5V3.00781H1.99219V17H16.0078V3.00781H13.9922V15.5ZM9 10.4141L11.25 11.7734L10.6406 9.21875L12.6328 7.50781L10.0078 7.27344L9 4.85938L7.99219 7.27344L5.36719 7.50781L7.35938 9.21875L6.75 11.7734L9 10.4141ZM1.99219 0.992188H16.0078C16.5547 0.992188 17.0234 1.1875 17.4141 1.57812C17.8047 1.96875 18 2.44531 18 3.00781V17C18 17.5469 17.8047 18.0156 17.4141 18.4062C17.0234 18.7969 16.5547 18.9922 16.0078 18.9922H1.99219C1.44531 18.9922 0.976562 18.7969 0.585938 18.4062C0.195312 18.0156 0 17.5469 0 17V3.00781C0 2.44531 0.195312 1.96875 0.585938 1.57812C0.976562 1.1875 1.44531 0.992188 1.99219 0.992188Z" />
</svg>
